<svg width="31" height="43" viewBox="0 0 31 43" fill="none" xmlns="http://www.w3.org/2000/svg">
<path d="M6.61407 38.2005C6.71417 38.2257 6.91041 38.2666 7.00113 38.2163C7.05636 38.1857 7.5795 37.3056 7.68453 37.1582C9.038 35.2599 10.9215 33.9478 13.2478 33.5607C15.9592 33.1096 19.3298 32.8921 21.5629 31.1353C22.8987 30.0846 23.9632 28.4215 24.6717 26.8895C25.4547 25.1963 25.9552 23.1313 27.1144 21.6551C27.6578 20.9628 28.3742 20.6556 29.1281 20.2489C29.1897 20.1843 29.1217 20.0373 29.0896 19.9639C28.6927 19.0611 27.6726 18.4782 26.6963 18.6242C24.2659 18.9876 22.7922 21.8928 20.8805 23.1949C20.0857 23.7363 19.4215 23.3577 18.6874 22.9479C18.4246 22.8015 17.5139 22.2675 17.3541 22.0791C17.1283 21.8124 17.1051 20.9786 17.1273 20.6349C17.2116 19.3244 18.4882 18.177 19.4541 17.4137C19.9057 17.0572 20.6384 16.4409 21.238 16.5262C21.5279 16.5676 21.5994 17.0405 21.667 17.2904C21.8672 18.031 21.953 18.8273 22.1694 19.562C22.1951 19.6483 22.271 19.9441 22.343 19.9693C22.5856 20.0536 22.7128 19.7371 22.8533 19.5872C23.7783 18.6005 25.7047 17.1494 27.111 17.2658C28.5172 17.3822 30.5161 19.2331 30.8272 20.6137C30.8686 20.7967 30.9239 20.9988 30.7567 21.1369C30.6063 21.2611 29.6443 21.3006 29.3096 21.4312C27.8126 22.016 27.3151 23.7275 26.7461 25.0612C26.5089 25.6174 26.0775 26.1751 26.1608 26.8131C26.6223 26.786 26.9941 26.5241 27.465 26.4901C31.2232 26.216 32.3607 31.4139 28.8485 32.9705C27.5261 33.5568 27.2219 32.9124 26.0484 32.8448C24.6895 32.7664 23.2931 34.1815 22.2675 34.9369C21.0378 35.8427 18.8032 36.9052 18.6775 38.6043C18.5952 39.7187 18.8279 40.1619 18.0163 41.1042C16.3152 43.0799 13.4317 42.6712 12.4924 40.1762C12.1315 39.2172 12.4136 38.6744 12.3248 37.7637C12.2908 37.4156 11.5832 36.7026 11.3081 36.458C11.1626 36.3283 10.5374 35.8126 10.357 35.8934C10.2983 35.9196 10.0961 36.1646 10.0163 36.2322C9.75788 36.4516 9.44626 36.6395 9.19431 36.8618C8.34672 37.6093 8.17612 38.7557 7.45377 39.5727C7.19343 39.8666 7.12095 39.9475 6.71072 39.8306C6.23688 39.6955 6.09931 39.23 5.78473 38.9165C5.06584 39.0032 4.63194 39.3499 3.92685 38.9046C3.38201 38.561 3.37461 38.2799 3.23902 37.7213C3.15273 37.3648 2.99544 37.4698 2.70305 37.3539C2.26816 37.1818 1.66218 36.6439 1.55864 36.176C1.48418 35.8402 1.58378 35.5123 1.57639 35.1839C1.57096 34.9537 1.43931 34.9714 1.30816 34.8462C1.177 34.7209 1.07641 34.6095 0.976322 34.4685C0.576443 33.9064 -0.0320045 32.5416 1.0991 32.4582C1.15284 32.1205 0.795365 31.9745 0.633639 31.7467C0.385132 31.3971 -0.0167194 30.2187 0.000538054 29.7966C0.00990637 29.5698 0.358506 28.6123 0.462051 28.3529C0.591728 28.0275 0.759372 27.6661 1.01971 27.427C1.29435 27.175 2.21393 26.6188 2.34163 26.3619C2.46983 26.1036 2.53689 25.4542 2.55217 25.1534C2.66804 22.905 2.53393 20.486 2.54921 18.2149C2.55266 17.7229 2.62169 17.2801 2.54182 16.7737C2.3012 15.2467 0.473884 15.0011 0.178043 13.3957C-0.218878 11.24 1.31605 9.04978 3.62706 9.36584C4.8479 9.53299 5.11071 9.92054 6.32168 9.18192C7.44539 8.49606 8.87135 7.54247 9.88756 6.71608C9.96152 6.65593 10.317 6.31029 10.3471 6.3024C10.5877 6.23731 11.0167 6.85365 11.104 7.0494C11.1474 7.14702 11.2223 7.32847 11.1784 7.42561C10.3614 8.06413 9.5222 8.67406 8.68891 9.29138C7.90296 9.8737 6.65155 10.5068 6.58055 11.6024C6.56773 11.7986 6.61358 11.9757 6.61555 12.1507C6.62985 13.4963 6.23195 14.6934 5.04365 15.4197C4.66694 15.65 4.29517 15.6554 4.15415 16.1431C3.96383 16.8013 4.06343 17.4842 4.06787 18.1508C4.08068 20.1522 4.09252 22.1541 4.13246 24.151C4.14232 24.6411 4.04518 26.2904 4.38836 26.6045C4.47317 26.6824 4.89178 26.8234 5.04414 26.9166C6.17475 27.6069 6.63133 29.0842 6.61605 30.3469C6.61358 30.556 6.48834 31.1837 6.77432 31.2828C7.22203 31.4371 8.15048 31.2793 8.61446 31.1521C9.77415 30.8341 10.675 30.2419 11.6892 29.6468C11.994 29.4678 12.776 29.1631 12.9032 28.8283C12.9367 28.74 12.9525 28.6655 12.847 28.6286C11.9377 28.5166 11.1035 28.313 10.2603 27.958C9.05033 27.4487 8.06961 26.639 8.11399 25.2012C6.32957 23.9005 5.25616 21.7384 5.78177 19.5132C5.88384 19.3806 6.46813 19.245 6.48637 19.0882C6.32859 18.2583 6.10572 17.4591 6.16341 16.6041C6.21321 15.8674 6.64711 14.194 7.44588 13.9514C7.69932 13.8745 7.78807 13.9464 7.98431 14.1042C8.50795 14.5248 8.89896 15.2092 9.33927 15.7171C10.3353 16.8669 12.0033 17.6637 13.2498 18.5483C13.3898 18.6474 13.98 19.0502 14.0244 19.1607C14.089 19.3214 14.1048 20.3583 13.8878 20.3583C12.4717 19.489 11.029 18.6533 9.714 17.6326C9.41421 17.3999 9.0597 17.141 8.80823 16.861C8.50647 16.5247 8.26586 16.0696 7.95276 15.7486C7.63177 15.4192 7.55485 15.8571 7.4804 16.148C7.15251 17.4334 7.70326 19.5778 8.54986 20.6029C8.82943 20.9411 9.26876 21.1926 9.34864 21.664C9.33138 21.7522 8.85754 22.1077 8.76681 22.0989C8.43744 22.0653 7.22154 21.0792 7.06523 21.233C7.06622 22.406 7.78166 23.4814 8.68102 24.1816C9.35307 24.7047 9.67899 24.5612 10.3318 24.8531C10.6834 25.0104 10.6696 25.2989 10.5419 25.6297C10.4053 25.9847 10.0873 25.8437 9.80522 25.9961C9.76479 26.1612 9.96251 26.3264 10.0818 26.4255C10.6922 26.9314 12.5201 27.5497 13.3154 27.6755C13.5348 27.71 14.5702 27.7282 14.6398 27.9314C14.7098 28.9491 13.7463 29.6611 13.0102 30.1946C11.1888 31.514 9.10753 32.4306 6.85519 32.6841C5.62646 32.8226 4.06392 33.114 2.85639 33.0065C2.39291 32.9651 1.94915 32.6303 1.48763 32.7516C1.46249 33.0193 1.81503 33.9478 2.03494 34.0538C2.15426 34.1115 2.37023 34.1214 2.50286 34.2308L4.18965 34.2693C4.33757 34.6169 4.02546 34.8758 3.76512 35.0454C3.54373 35.1893 2.74693 35.4822 2.64635 35.604C2.6 35.6602 2.60049 35.82 2.61479 35.8934C2.6281 35.9615 2.98015 36.315 3.05017 36.3288C3.46731 36.3288 3.8943 36.2194 4.30602 36.1991C4.43767 36.1927 4.99286 36.1706 5.05105 36.2642C5.054 36.3638 4.93419 36.4881 4.87058 36.5709C4.79218 36.673 4.37505 37.0822 4.36223 37.1266C4.28432 37.3889 4.36617 38.0028 4.70195 38.0639C5.29807 38.1724 5.59983 37.5497 5.96815 37.2164C6.12692 37.0724 6.30985 36.9526 6.52976 37.0428C6.89512 37.1922 6.61358 37.3855 6.61358 37.6364V38.201L6.61407 38.2005ZM2.92789 10.7878C2.81794 10.8125 2.2016 11.1823 2.08819 11.2706C0.963502 12.1443 1.55321 14.1703 2.93578 14.4444C4.53924 14.762 5.75268 12.98 4.83508 11.6098C4.48895 11.0926 3.54127 10.6503 2.92838 10.7883L2.92789 10.7878ZM20.6044 18.176C20.5734 18.1484 20.4363 18.1213 20.4018 18.1656C19.8042 18.748 18.1598 20.0107 18.0986 20.8662C18.0691 21.2818 18.7712 21.6871 19.0956 21.8622C19.245 21.943 19.8308 22.2418 19.9585 22.2586C20.2282 22.2936 21.0156 21.664 21.2094 21.4588C21.4727 21.1798 21.5378 21.1112 21.419 20.7321C21.2809 20.2918 21.025 19.8761 20.8934 19.419C20.8445 19.2499 20.6522 18.2179 20.6044 18.176ZM3.05757 27.9176C2.91655 27.9442 2.41263 28.2055 2.27063 28.2918C0.557213 29.3312 1.9166 32.1629 3.80062 31.5959C5.54214 31.0717 5.54954 28.4772 3.77597 27.991C3.57923 27.9373 3.25578 27.8801 3.05806 27.9176H3.05757ZM27.2801 27.9496C27.1741 27.9713 26.7234 28.24 26.6144 28.3165C24.9493 29.4806 26.3063 32.3808 28.4171 31.5387C29.7582 31.0037 29.8657 29.1251 28.7184 28.3352C28.3752 28.099 27.6913 27.8653 27.2796 27.9501L27.2801 27.9496ZM24.3448 30.1448C24.3123 30.1186 24.2097 30.0959 24.1752 30.1324C22.6862 32.2147 20.3973 33.6234 17.8773 34.0942C16.2393 34.4004 14.2202 34.363 12.6695 34.9177C12.4574 34.9936 11.9358 35.178 12.0378 35.4694C12.0531 35.5128 12.735 35.8732 12.8381 35.927C13.1196 36.0734 13.4293 36.3096 13.7434 36.2504C14.5771 36.0936 14.9859 35.5483 15.9937 35.7707C16.8773 35.9654 17.0992 36.3949 18.0853 35.9802C19.3372 35.4536 20.4126 34.4458 21.5048 33.6579C22.3223 33.0682 24.1244 32.0796 24.3759 31.0776C24.4257 30.8804 24.515 30.2828 24.3443 30.1448H24.3448ZM15.0554 37.1749C14.8764 37.2154 14.2345 37.6784 14.0964 37.8287C12.9495 39.0777 14.3035 41.3507 15.9607 40.8227C17.4833 40.337 17.7431 38.1621 16.2861 37.4146C15.9923 37.2637 15.3749 37.1034 15.0549 37.1754L15.0554 37.1749Z" fill="black"/>
<path d="M20.3095 6.17432C20.5624 6.23201 20.7749 6.40705 20.9672 6.57124C22.0455 7.4923 23.4133 8.52084 24.6204 9.27277C25.3407 9.72146 25.8644 9.71012 26.676 9.54001C26.9817 9.47591 27.4417 9.28016 27.7232 9.29841C30.8749 9.50205 32.1175 13.5842 29.5565 15.3563C27.953 16.4657 25.6617 15.8192 24.7559 14.1369C24.2895 13.2706 24.5932 12.6025 24.4414 11.7095C24.3428 11.1307 23.9325 10.6361 23.4981 10.2658C22.7097 9.59376 21.5254 8.758 20.6546 8.17421C20.3913 7.99769 19.4885 7.6126 19.629 7.20286C19.6591 7.1151 20.1541 6.34394 20.2306 6.2542C20.2537 6.22757 20.2705 6.18172 20.3099 6.17383L20.3095 6.17432ZM27.2159 10.7894C27.1202 10.8136 26.534 11.212 26.4348 11.2988C25.0119 12.5433 26.4427 15.2039 28.4071 14.3681C29.7325 13.8041 29.8927 11.96 28.699 11.1612C28.3677 10.9393 27.6024 10.6918 27.2159 10.7894Z" fill="black"/>
<path d="M15.2508 0.0159466C17.7575 -0.248831 19.6948 2.84123 18.3354 5.00433C17.1585 6.877 14.7597 7.25617 13.1286 5.70103C10.9936 3.66515 12.4541 0.311788 15.2508 0.0159466ZM15.056 1.53065C14.9466 1.55334 14.4382 1.8763 14.3258 1.9616C12.6913 3.19673 14.0403 5.53438 16.0012 5.08913C17.6328 4.71884 17.6279 2.61097 16.3202 1.83241C16.017 1.65195 15.4026 1.45867 15.056 1.53065Z" fill="black"/>
<path d="M16.2259 8.38379H14.8887V13.2681C15.3566 13.5807 15.824 13.8933 16.2919 14.2059C16.2801 13.2957 16.2683 12.3855 16.2569 11.4753" fill="black"/>
<path d="M20.7119 14.1577V15.1098L16.4138 15.1054L16.2915 14.1577H20.7119Z" fill="black"/>
<path d="M14.8887 13.2683L16.4137 15.1055L16.2949 14.1869" fill="black"/>
<path d="M14.7261 20.4816L16.0633 20.484L16.0722 15.5997C15.6053 15.2861 15.1378 14.9725 14.6709 14.6594C14.6808 15.5696 14.6911 16.4798 14.701 17.3905" fill="black"/>
<path d="M10.251 14.6994L10.2525 13.7478L14.551 13.7601L14.6713 14.7078L10.251 14.6994Z" fill="black"/>
<path d="M16.0719 15.5999L14.5508 13.7603L14.6676 14.6788" fill="black"/>
</svg>
