<svg width="40" height="54" viewBox="0 0 40 54" fill="none" xmlns="http://www.w3.org/2000/svg">
<path d="M8.34606 48.2039C8.47237 48.2357 8.72 48.2873 8.83448 48.2238C8.90417 48.1853 9.5643 47.0746 9.69683 46.8886C11.4047 44.4932 13.7815 42.8376 16.717 42.3491C20.1384 41.7799 24.3916 41.5055 27.2095 39.2886C28.895 37.9627 30.2383 35.8641 31.1324 33.931C32.1204 31.7944 32.7519 29.1887 34.2147 27.3258C34.9004 26.4523 35.8044 26.0647 36.7557 25.5514C36.8335 25.4699 36.7476 25.2844 36.7072 25.1917C36.2063 24.0525 34.919 23.3171 33.6871 23.5013C30.6203 23.9598 28.7606 27.6257 26.3484 29.2689C25.3454 29.9521 24.5074 29.4742 23.5809 28.9572C23.2493 28.7724 22.1001 28.0986 21.8985 27.8609C21.6136 27.5243 21.5843 26.4722 21.6123 26.0385C21.7187 24.3848 23.3296 22.9369 24.5484 21.9738C25.1183 21.5239 26.0429 20.7462 26.7995 20.8539C27.1653 20.9061 27.2556 21.5028 27.3408 21.8182C27.5934 22.7528 27.7017 23.7576 27.9748 24.6847C28.0072 24.7935 28.103 25.1669 28.1938 25.1986C28.4999 25.305 28.6604 24.9055 28.8378 24.7164C30.005 23.4714 32.4359 21.6403 34.2103 21.7871C35.9848 21.934 38.5072 24.2697 38.8998 26.0118C38.952 26.2426 39.0217 26.4977 38.8108 26.6719C38.621 26.8287 37.4071 26.8785 36.9847 27.0434C35.0957 27.7813 34.4679 29.9409 33.7499 31.6239C33.4507 32.3257 32.9062 33.0294 33.0114 33.8345C33.5938 33.8003 34.0629 33.4699 34.6571 33.427C39.3994 33.0811 40.8348 39.6401 36.4029 41.6044C34.7342 42.3442 34.3503 41.531 32.8695 41.4457C31.1548 41.3468 29.3928 43.1325 28.0986 44.0857C26.5469 45.2286 23.7271 46.5694 23.5685 48.7135C23.4646 50.1196 23.7582 50.679 22.7341 51.868C20.5876 54.3611 16.949 53.8453 15.7638 50.697C15.3083 49.4869 15.6642 48.8018 15.5522 47.6527C15.5093 47.2134 14.6165 46.3137 14.2693 46.0051C14.0857 45.8415 13.2968 45.1907 13.0691 45.2927C12.995 45.3257 12.7399 45.6349 12.6391 45.7202C12.3131 45.997 11.9199 46.2341 11.602 46.5147C10.5324 47.4579 10.3172 48.9045 9.40565 49.9355C9.07713 50.3063 8.98567 50.4083 8.46801 50.2609C7.87009 50.0904 7.6965 49.503 7.29955 49.1073C6.3924 49.2168 5.84488 49.6542 4.95515 49.0924C4.26763 48.6587 4.2583 48.3041 4.0872 47.5992C3.97832 47.1493 3.77984 47.2818 3.41088 47.1356C2.86211 46.9185 2.09745 46.2397 1.96679 45.6492C1.87284 45.2255 1.99852 44.8118 1.98919 44.3974C1.98234 44.1068 1.81622 44.1292 1.65072 43.9712C1.48522 43.8131 1.35829 43.6725 1.23199 43.4946C0.727393 42.7853 -0.0403854 41.0631 1.38691 40.9579C1.45473 40.5317 1.00364 40.3476 0.799566 40.0601C0.485984 39.619 -0.0210976 38.132 0.000678951 37.5994C0.0125005 37.3132 0.452386 36.1049 0.583045 35.7776C0.74668 35.367 0.958224 34.9109 1.28674 34.6091C1.6333 34.2912 2.79367 33.5894 2.95482 33.2652C3.11659 32.9392 3.20121 32.1198 3.22049 31.7402C3.36671 28.9031 3.19747 25.8506 3.21676 22.9848C3.22112 22.3639 3.30822 21.8052 3.20743 21.1662C2.9038 19.2393 0.597978 18.9294 0.224666 16.9036C-0.276194 14.1834 1.66067 11.4196 4.57686 11.8185C6.11739 12.0294 6.44902 12.5184 7.97711 11.5864C9.39507 10.7209 11.1944 9.51762 12.4768 8.47484C12.5701 8.39893 13.0187 7.96278 13.0566 7.95282C13.3603 7.87069 13.9016 8.64843 14.0117 8.89543C14.0664 9.01863 14.161 9.24759 14.1056 9.37016C13.0747 10.1759 12.0157 10.9455 10.9642 11.7245C9.97246 12.4593 8.39335 13.2582 8.30375 14.6407C8.28758 14.8883 8.34544 15.1117 8.34793 15.3326C8.36597 17.0305 7.86387 18.5412 6.3644 19.4577C5.88905 19.7482 5.41992 19.7551 5.24198 20.3704C5.00181 21.201 5.12749 22.0628 5.13309 22.904C5.14927 25.4294 5.1642 27.9555 5.2146 30.4753C5.22704 31.0938 5.10447 33.175 5.53751 33.5713C5.64453 33.6696 6.17277 33.8476 6.36502 33.9652C7.7917 34.8362 8.36784 36.7003 8.34855 38.2937C8.34544 38.5575 8.18741 39.3496 8.54827 39.4746C9.11322 39.6694 10.2848 39.4703 10.8703 39.3098C12.3337 38.9085 13.4704 38.1612 14.7502 37.4102C15.1347 37.1844 16.1215 36.7999 16.2821 36.3774C16.3244 36.266 16.3443 36.1721 16.2111 36.1254C15.0638 35.9842 14.0111 35.7272 12.9471 35.2792C11.4203 34.6365 10.1828 33.6149 10.2388 31.8006C7.98706 30.1593 6.63256 27.431 7.29581 24.6231C7.42461 24.4557 8.1619 24.2846 8.18492 24.0867C7.98582 23.0396 7.70459 22.031 7.77739 20.9522C7.84023 20.0226 8.38775 17.9109 9.39569 17.6048C9.7155 17.5077 9.82749 17.5986 10.0751 17.7977C10.7359 18.3284 11.2293 19.192 11.7849 19.8328C13.0417 21.2838 15.1466 22.2892 16.7194 23.4054C16.8961 23.5305 17.6409 24.0388 17.6969 24.1782C17.7784 24.381 17.7983 25.6895 17.5246 25.6895C15.7376 24.5926 13.9171 23.538 12.2577 22.25C11.8795 21.9564 11.4321 21.6297 11.1148 21.2763C10.734 20.852 10.4304 20.2777 10.0353 19.8727C9.63026 19.457 9.5332 20.0095 9.43925 20.3766C9.02549 21.9987 9.72047 24.7046 10.7888 25.9981C11.1415 26.4249 11.6959 26.7422 11.7967 27.337C11.7749 27.4484 11.177 27.897 11.0625 27.8858C10.6469 27.8435 9.1126 26.5991 8.91536 26.7932C8.91661 28.2734 9.8194 29.6304 10.9543 30.5139C11.8023 31.1741 12.2136 30.993 13.0373 31.3613C13.481 31.5598 13.4635 31.9238 13.3024 32.3413C13.1301 32.7893 12.7287 32.6113 12.3729 32.8036C12.3218 33.012 12.5713 33.2204 12.7219 33.3455C13.4922 33.9839 15.7986 34.7641 16.8022 34.9227C17.0791 34.9663 18.3857 34.9893 18.4734 35.2456C18.5617 36.5298 17.346 37.4283 16.4171 38.1015C14.1187 39.7665 11.4925 40.9231 8.65031 41.2429C7.09982 41.4177 5.12812 41.7854 3.60438 41.6498C3.01953 41.5975 2.45956 41.1751 1.87719 41.3281C1.84546 41.666 2.29032 42.8376 2.56782 42.9713C2.71839 43.0441 2.99091 43.0566 3.15827 43.1947L5.28677 43.2432C5.47343 43.6819 5.07959 44.0085 4.75107 44.2225C4.47171 44.4042 3.46626 44.7738 3.33933 44.9275C3.28085 44.9984 3.28147 45.2 3.29951 45.2927C3.31631 45.3786 3.76055 45.8247 3.8489 45.8421C4.37527 45.8421 4.91408 45.704 5.43361 45.6785C5.59973 45.6704 6.30032 45.6424 6.37373 45.7606C6.37747 45.8863 6.22628 46.0431 6.14601 46.1476C6.04709 46.2764 5.52072 46.7928 5.50454 46.8488C5.40623 47.1798 5.50952 47.9544 5.93323 48.0316C6.68545 48.1685 7.06623 47.3826 7.531 46.962C7.73134 46.7804 7.96217 46.6292 8.23967 46.743C8.70071 46.9315 8.34544 47.1754 8.34544 47.4921V48.2045L8.34606 48.2039ZM3.6946 13.6128C3.55585 13.644 2.77812 14.1106 2.63502 14.222C1.21581 15.3245 1.95994 17.881 3.70455 18.227C5.7279 18.6277 7.2591 16.3791 6.10122 14.65C5.66444 13.9974 4.4686 13.4393 3.69522 13.6135L3.6946 13.6128ZM26 22.9357C25.9608 22.9008 25.7878 22.8666 25.7443 22.9226C24.9902 23.6574 22.9152 25.2508 22.838 26.3303C22.8007 26.8548 23.6867 27.3663 24.0961 27.5872C24.2846 27.6892 25.0238 28.0662 25.1849 28.0874C25.5253 28.1316 26.5189 27.337 26.7634 27.0782C27.0957 26.726 27.1778 26.6396 27.0278 26.1611C26.8536 25.6055 26.5307 25.081 26.3646 24.5042C26.303 24.2908 26.0603 22.9886 26 22.9357ZM3.85823 35.2282C3.68029 35.2618 3.04441 35.5916 2.86522 35.7005C0.703127 37.012 2.41849 40.5852 4.79587 39.8697C6.99343 39.2083 7.00276 35.9344 4.76476 35.3209C4.51651 35.2531 4.10835 35.1809 3.85886 35.2282H3.85823ZM34.4238 35.2687C34.29 35.296 33.7213 35.6351 33.5838 35.7316C31.4827 37.2006 33.1949 40.8603 35.8585 39.7976C37.5509 39.1225 37.6865 36.752 36.2387 35.7552C35.8056 35.4572 34.9427 35.1623 34.4231 35.2693L34.4238 35.2687ZM30.7199 38.0386C30.6788 38.0057 30.5494 37.977 30.5059 38.0231C28.6269 40.6506 25.7387 42.4282 22.5587 43.0224C20.4918 43.4087 17.9439 43.3614 15.9871 44.0614C15.7196 44.1572 15.0613 44.3899 15.1901 44.7576C15.2094 44.8124 16.0699 45.2672 16.1999 45.335C16.5552 45.5198 16.9459 45.8178 17.3423 45.7432C18.3944 45.5453 18.9102 44.8572 20.1819 45.1378C21.2969 45.3835 21.5769 45.9255 22.8212 45.4022C24.401 44.7377 25.7579 43.466 27.1361 42.4717C28.1677 41.7276 30.4418 40.4801 30.7591 39.2158C30.8219 38.9669 30.9345 38.2129 30.7193 38.0386H30.7199ZM18.9979 46.9098C18.772 46.9608 17.962 47.545 17.7877 47.7348C16.3405 49.3108 18.0491 52.1791 20.1402 51.5127C22.0615 50.8999 22.3894 48.1554 20.5509 47.2122C20.18 47.0218 19.4011 46.8196 18.9973 46.9104L18.9979 46.9098Z" fill="#4172D1"/>
<path d="M25.628 7.79115C25.9472 7.86395 26.2153 8.08482 26.458 8.29201C27.8187 9.45425 29.5446 10.7521 31.0677 11.701C31.9768 12.2672 32.6375 12.2528 33.6616 12.0382C34.0474 11.9573 34.6279 11.7103 34.9832 11.7333C38.9602 11.9903 40.5281 17.1414 37.2965 19.3775C35.2731 20.7774 32.3818 19.9617 31.2388 17.8388C30.6503 16.7457 31.0335 15.9026 30.8419 14.7758C30.7175 14.0454 30.1998 13.4213 29.6516 12.9541C28.6568 12.106 27.1623 11.0514 26.0635 10.3147C25.7313 10.092 24.592 9.60607 24.7694 9.08903C24.8073 8.97828 25.432 8.00518 25.5284 7.89194C25.5577 7.85835 25.5788 7.80048 25.6286 7.79053L25.628 7.79115ZM34.3429 13.6148C34.2222 13.6453 33.4825 14.148 33.3574 14.2575C31.5618 15.8279 33.3673 19.1852 35.8461 18.1306C37.5186 17.4189 37.7208 15.0919 36.2145 14.0839C35.7964 13.804 34.8307 13.4916 34.3429 13.6148Z" fill="#4172D1"/>
<path d="M19.2443 0.0201225C22.4075 -0.313991 24.8521 3.58525 23.1367 6.31478C21.6515 8.67784 18.6246 9.15631 16.5664 7.19393C13.8724 4.62492 15.7153 0.393434 19.2443 0.0201225ZM18.9985 1.93148C18.8604 1.9601 18.2189 2.36763 18.0771 2.47527C16.0145 4.03385 17.7168 6.98363 20.1913 6.4218C22.2501 5.95453 22.2439 3.29469 20.5938 2.31226C20.2112 2.08454 19.4359 1.84064 18.9985 1.93148Z" fill="#4172D1"/>
<path d="M20.475 10.5791H18.7876V16.7425C19.3781 17.1369 19.9679 17.5314 20.5583 17.9259C20.5434 16.7773 20.5285 15.6288 20.5142 14.4802" fill="#4172D1"/>
<path d="M26.1355 17.8652V19.0667L20.7119 19.0611L20.5576 17.8652H26.1355Z" fill="#4172D1"/>
<path d="M18.7876 16.7427L20.712 19.0609L20.5621 17.9018" fill="#4172D1"/>
<path d="M18.5824 25.8453L20.2697 25.8484L20.2809 19.685C19.6917 19.2893 19.1019 18.8936 18.5127 18.4985C18.5251 19.6471 18.5382 20.7956 18.5506 21.9448" fill="#4172D1"/>
<path d="M12.9353 18.549L12.9372 17.3481L18.3614 17.3637L18.5132 18.5595L12.9353 18.549Z" fill="#4172D1"/>
<path d="M20.2808 19.6847L18.3613 17.3633L18.5088 18.5224" fill="#4172D1"/>
</svg>
