<svg width="17" height="22" viewBox="0 0 17 22" fill="none" xmlns="http://www.w3.org/2000/svg">
<path d="M14.0781 0.000549701C15.6918 0.000549701 17 1.30871 17 2.92241V18.3267C17 19.9404 15.6918 21.2486 14.0781 21.2486H2.92186C1.30816 21.2486 0 19.9404 0 18.3267V2.92241C0 1.30871 1.30816 0.000549701 2.92186 0.000549701L3.23149 0V8.67754C3.23149 9.47234 4.07126 9.75496 4.63248 9.46306L4.7284 9.40558L6.95217 8.13351L9.22641 9.43971C9.69966 9.76718 10.5657 9.54689 10.6605 8.81248L10.6689 8.67754V0L14.0781 0.000549701ZM9.0752 0V7.51788L7.35226 6.52774C7.11135 6.41244 6.78371 6.41506 6.50992 6.55167L6.39629 6.61847L4.82523 7.51716V0H9.0752Z" fill="black"/>
</svg>
