<svg width="21" height="19" viewBox="0 0 21 19" fill="none" xmlns="http://www.w3.org/2000/svg">
<path d="M16.1252 1.22598C16.4735 0.921216 16.946 0.75 17.4384 0.75C17.931 0.75 18.4035 0.921216 18.7518 1.22598C19.1001 1.53076 19.2958 1.94411 19.2958 2.37512C19.2958 2.80613 19.1001 3.21948 18.7518 3.52425L10.4342 10.8021L6.93213 11.5682L7.80766 8.50384L16.1252 1.22598Z" stroke="#393939" stroke-width="1.5" stroke-linecap="round" stroke-linejoin="round"/>
<path d="M14.6592 3.84082L16.2046 5.38627" stroke="#393939" stroke-width="1.5" stroke-linecap="round" stroke-linejoin="round"/>
<path d="M10.5379 0.75H10.0227C4.90154 0.75 0.75 4.55558 0.75 9.25C0.75 13.9445 4.90154 17.75 10.0227 17.75C15.144 17.75 19.2955 13.9445 19.2955 9.25V8.77778" stroke="#393939" stroke-width="1.5" stroke-linecap="round"/>
</svg>
