<svg width="20" height="21" viewBox="0 0 20 21" fill="none" xmlns="http://www.w3.org/2000/svg">
<path d="M14.3353 14.9711H5.72257C5.40384 14.9711 5.14453 15.2304 5.14453 15.5491V19.8844C5.14453 20.2031 5.40384 20.4624 5.72257 20.4624H14.3353C14.654 20.4624 14.9133 20.2031 14.9133 19.8844V15.5491C14.9133 15.2304 14.654 14.9711 14.3353 14.9711Z" fill="#979090"/>
<path d="M19.1185 7.86133H0.852601C0.382486 7.86133 0 8.25029 0 8.72838V15.5492C0 16.0273 0.382486 16.4162 0.852601 16.4162H3.02023C3.49035 16.4162 3.87283 16.0273 3.87283 15.5492V14.0463C3.87283 13.8924 4.01462 13.7573 4.1763 13.7573H15.7948C15.9487 13.7573 16.0694 13.8842 16.0694 14.0463V15.5492C16.0694 16.0192 16.473 16.4162 16.9509 16.4162H19.1185C19.5964 16.4162 20 16.0192 20 15.5492V8.72838C20 8.25838 19.5964 7.86133 19.1185 7.86133ZM5.0289 10.8093C5.0289 10.9689 4.89948 11.0983 4.73988 11.0983H2.13873C1.97908 11.0983 1.84971 10.9689 1.84971 10.8093V9.65324C1.84971 9.49364 1.97908 9.36422 2.13873 9.36422H4.73988C4.89948 9.36422 5.0289 9.49364 5.0289 9.65324V10.8093ZM17.9191 10.8093C17.9191 10.9683 17.789 11.0983 17.6301 11.0983H14.2197C14.0607 11.0983 13.9306 10.9683 13.9306 10.8093V9.65324C13.9306 9.49428 14.0607 9.36422 14.2197 9.36422H17.6301C17.789 9.36422 17.9191 9.49428 17.9191 9.65324V10.8093Z" fill="#979090"/>
<path d="M5.35073 6.6474H5.36287H14.5663C14.7313 6.6474 14.9573 6.6474 15.0976 6.46775C15.2022 6.33381 15.2022 6.17977 15.2022 5.96647V0.924855C15.2022 0.414913 14.7873 0 14.2773 0H5.6646C5.15466 0 4.73975 0.414913 4.73975 0.924855V6.02422C4.73969 6.23566 4.73969 6.38844 4.85963 6.51439C4.98634 6.6474 5.14715 6.6474 5.35073 6.6474Z" fill="#979090"/>
</svg>
