<svg width="21" height="20" viewBox="0 0 21 20" fill="none" xmlns="http://www.w3.org/2000/svg">
<path d="M6.9707 2.64472C7.42247 1.54087 8.6414 0.75 10.0742 0.75C11.5072 0.75 12.7261 1.54087 13.1778 2.64472" stroke="#FFB5B5" stroke-width="1.5" stroke-linecap="round"/>
<path d="M19.3982 4.53955H0.75" stroke="#FFB5B5" stroke-width="1.5" stroke-linecap="round"/>
<path d="M17.2452 12.477C17.051 15.4505 16.9538 16.9373 16.0044 17.8436C15.055 18.75 13.5948 18.75 10.6745 18.75H9.8256C6.90521 18.75 5.44501 18.75 4.49561 17.8436C3.5462 16.9373 3.44907 15.4505 3.25481 12.477L2.75 4.75M17.75 4.75L17.5305 8.11" stroke="#FFB5B5" stroke-width="1.5" stroke-linecap="round"/>
<path d="M7.33252 9.27612L7.88099 14.0129" stroke="#FFB5B5" stroke-width="1.5" stroke-linecap="round"/>
<path d="M12.817 9.27612L12.2686 14.0129" stroke="#FFB5B5" stroke-width="1.5" stroke-linecap="round"/>
</svg>
