<svg width="31" height="31" viewBox="0 0 31 31" fill="none" xmlns="http://www.w3.org/2000/svg">
<path d="M0.000187241 23.8356V7.37025C0.000187241 5.64525 1.10633 3.92026 2.84443 3.29313L10.7454 0.313563C11.2194 0.156858 11.6934 -1.90734e-07 12.3255 -1.90734e-07C13.1156 -1.90734e-07 14.0636 0.313565 14.8537 0.78399C15.1698 1.09771 15.6438 1.41127 15.8019 1.72499H21.8065C24.1767 1.72499 26.231 3.60669 26.231 6.11568V7.68381C26.231 8.3111 25.7569 8.93838 24.9668 8.93838C24.1767 8.93838 23.7027 8.46796 23.7027 7.68381V6.11568C23.7027 5.01797 22.7546 4.23398 21.8065 4.23398H16.592V26.815H21.8065C22.9126 26.815 23.7027 26.031 23.7027 24.9333V23.3652C23.7027 22.7379 24.1767 22.1107 24.9668 22.1107C25.7569 22.1107 26.231 22.7379 26.231 23.3652V24.9333C26.231 27.2855 24.3347 29.3241 21.8065 29.3241H15.8019C15.4858 29.6377 15.1698 29.9513 14.8537 30.2649C13.5896 31.049 12.1674 31.2058 10.7454 30.7354L2.84443 27.7559C1.26428 27.2855 0.000187241 25.5605 0.000187241 23.8356Z" fill="white"/>
<path d="M26.6073 11.128C26.9211 11.128 27.2348 11.2891 27.3917 11.4503L30.5294 14.6738C30.6862 14.835 30.6862 14.996 30.8431 14.996C30.8431 15.1573 31 15.3185 31 15.4795C31 15.6408 31 15.802 30.8431 15.9631C30.8431 16.1243 30.6862 16.2855 30.5294 16.2855L27.3917 19.5089C26.9211 19.9925 26.1366 19.9925 25.666 19.5089C25.1953 19.0254 25.1953 18.2195 25.666 17.736L26.7642 16.6078H20.332C19.7044 16.6078 19.0769 16.1243 19.0769 15.3185C19.0769 14.5125 19.7044 14.3513 20.332 14.3513H26.9211L25.8229 13.2232C25.3522 12.7397 25.3522 11.9338 25.8229 11.4503C25.9797 11.2891 26.2935 11.128 26.6073 11.128Z" fill="white"/>
</svg>
