<svg width="27" height="16" viewBox="0 0 27 16" fill="none" xmlns="http://www.w3.org/2000/svg">
<path d="M26.0033 7.31064C21.8969 2.33348 17.4817 -0.113854 12.8798 0.00406581C5.45531 0.211618 0.344557 7.04992 0.130529 7.34063C0.120646 7.35426 0.11383 7.36926 0.10531 7.38357C0.0981526 7.39448 0.0916772 7.40572 0.0852019 7.41765C0.0698655 7.44492 0.0569149 7.47218 0.0460091 7.50047C0.040897 7.5141 0.0364667 7.52773 0.0320362 7.54136C0.023516 7.56829 0.0163588 7.59521 0.0112466 7.62248C0.00783857 7.6402 0.00579376 7.65792 0.00408972 7.67598C0.00170407 7.69916 0 7.72233 0 7.74585C0 7.76902 0.00170407 7.7922 0.00408972 7.81537C0.00613456 7.83344 0.00817938 7.85082 0.0112466 7.86888C0.0163588 7.89615 0.023516 7.92307 0.0320362 7.94999C0.0364667 7.96362 0.040897 7.97726 0.0460091 7.99089C0.0569149 8.01918 0.0702064 8.04644 0.0852019 8.07371C0.0916772 8.08529 0.0978118 8.0962 0.10531 8.10779C0.11383 8.12176 0.120646 8.1371 0.130529 8.15073C0.344557 8.44178 5.45531 15.2797 12.8798 15.4873C12.9947 15.4904 13.1088 15.4921 13.223 15.4921C17.7009 15.4921 21.9988 13.0338 26.0033 8.18072C26.1086 8.05326 26.1563 7.89887 26.156 7.74585C26.1563 7.59249 26.1086 7.4381 26.0033 7.31064ZM12.9261 14.1251C7.15355 13.968 2.74248 9.17758 1.55067 7.74585C2.74248 6.31412 7.15321 1.52339 12.9261 1.36627C16.9552 1.26096 20.8687 3.40737 24.5821 7.74585C20.869 12.0847 16.9593 14.2416 12.9261 14.1251Z" fill="#9D9D9D"/>
<path d="M13.4195 3.25854C10.9449 3.25854 8.93213 5.27135 8.93213 7.74562C8.93213 10.2202 10.9449 12.233 13.4195 12.233C15.8941 12.233 17.907 10.2202 17.907 7.74562C17.907 5.27135 15.8941 3.25854 13.4195 3.25854ZM13.4195 10.8698C11.6968 10.8698 10.2954 9.4684 10.2954 7.74562C10.2954 6.02318 11.6968 4.62178 13.4195 4.62178C15.1423 4.62178 16.5437 6.02318 16.5437 7.74562C16.5437 9.46806 15.1423 10.8698 13.4195 10.8698Z" fill="#9D9D9D"/>
</svg>
