<svg width="27" height="16" viewBox="0 0 27 16" fill="none" xmlns="http://www.w3.org/2000/svg">
<path d="M26.3412 7.44921C22.1815 2.37772 17.7089 -0.116012 13.0472 0.00414287C5.5262 0.215629 0.349034 7.18355 0.132226 7.47977C0.122214 7.49366 0.115309 7.50894 0.106678 7.52353C0.0994282 7.53464 0.0928687 7.5461 0.0863092 7.55825C0.0707735 7.58603 0.0576546 7.61381 0.046607 7.64264C0.0414285 7.65653 0.0369406 7.67042 0.0324525 7.68431C0.0238216 7.71175 0.0165714 7.73918 0.0113928 7.76696C0.00794044 7.78502 0.00586905 7.80308 0.00414287 7.82148C0.00172621 7.8451 0 7.86871 0 7.89267C0 7.91629 0.00172621 7.9399 0.00414287 7.96351C0.00621429 7.98192 0.00828568 7.99963 0.0113928 8.01803C0.0165714 8.04582 0.0238216 8.07325 0.0324525 8.10068C0.0369406 8.11457 0.0414285 8.12847 0.046607 8.14236C0.0576546 8.17118 0.0711188 8.19896 0.0863092 8.22674C0.0928687 8.23855 0.0990829 8.24966 0.106678 8.26147C0.115309 8.27571 0.122214 8.29133 0.132226 8.30522C0.349034 8.60179 5.5262 15.5694 13.0472 15.7809C13.1635 15.784 13.2792 15.7857 13.3948 15.7857C17.9309 15.7857 22.2847 13.2809 26.3412 8.33578C26.4479 8.20591 26.4962 8.04859 26.4959 7.89267C26.4962 7.7364 26.4479 7.57909 26.3412 7.44921ZM13.0941 14.3928C7.24652 14.2327 2.77812 9.35154 1.57083 7.89267C2.77812 6.4338 7.24617 1.55226 13.0941 1.39217C17.1755 1.28487 21.1399 3.47196 24.9016 7.89267C21.1402 12.3137 17.1797 14.5116 13.0941 14.3928Z" fill="#393939"/>
<path d="M13.5936 3.32031C11.0868 3.32031 9.04785 5.37127 9.04785 7.89244C9.04785 10.4139 11.0868 12.4649 13.5936 12.4649C16.1003 12.4649 18.1393 10.4139 18.1393 7.89244C18.1393 5.37127 16.1003 3.32031 13.5936 3.32031ZM13.5936 11.0758C11.8484 11.0758 10.4288 9.64787 10.4288 7.89244C10.4288 6.13735 11.8484 4.70938 13.5936 4.70938C15.3388 4.70938 16.7584 6.13735 16.7584 7.89244C16.7584 9.64753 15.3388 11.0758 13.5936 11.0758Z" fill="#393939"/>
</svg>
