<svg width="54" height="54" viewBox="0 0 54 54" fill="none" xmlns="http://www.w3.org/2000/svg">
<path d="M27 0C12.1124 0 0 12.1124 0 27C0 41.8876 12.1124 54 27 54C41.8876 54 54 41.8876 54 27C54 12.1124 41.8876 0 27 0ZM20.4811 15.1641C22.1257 13.4208 24.4402 12.4615 27 12.4615C29.5598 12.4615 31.8535 13.4273 33.5047 15.1797C35.1779 16.9555 35.9918 19.3413 35.7997 21.9063C35.4154 27 31.4693 31.1538 27 31.1538C22.5307 31.1538 18.5768 27 18.2003 21.905C18.0095 19.3193 18.8221 16.9256 20.4811 15.1641ZM27 49.8462C23.9501 49.8482 20.9309 49.2377 18.1214 48.051C15.3118 46.8643 12.7692 45.1256 10.6442 42.9378C11.8613 41.2022 13.4119 39.7266 15.2057 38.597C18.5145 36.476 22.7021 35.3077 27 35.3077C31.2979 35.3077 35.4855 36.476 38.7904 38.597C40.5857 39.726 42.1377 41.2017 43.3558 42.9378C41.231 45.1258 38.6884 46.8647 35.8788 48.0514C33.0692 49.2382 30.0499 49.8485 27 49.8462Z" fill="#4172D1"/>
</svg>
