<svg width="20" height="20" viewBox="0 0 20 20" fill="none" xmlns="http://www.w3.org/2000/svg">
<path d="M7.00001 0C3.14928 0 0 3.15033 0 7C0 10.8497 3.14928 14 7.00001 14C10.8507 14 14 10.8497 14 7C14 3.15033 10.8507 0 7.00001 0ZM7.00001 2.66585C9.40806 2.66585 11.3325 4.58999 11.3325 7C11.3325 9.41 9.40806 11.3342 7.00001 11.3342C4.59196 11.3342 2.66746 9.41 2.66746 7C2.66746 4.58999 4.59196 2.66585 7.00001 2.66585Z" fill="#8D8D8D"/>
<path d="M11.0007 9.66821C10.8255 9.66816 10.6521 9.70258 10.4902 9.76952C10.3284 9.83645 10.1813 9.9346 10.0574 10.0583C9.80723 10.3082 9.66661 10.6472 9.6665 11.0007C9.6664 11.3543 9.80682 11.6933 10.0569 11.9434L17.7227 19.6093C17.9728 19.8594 18.312 19.9999 18.6657 20C19.0194 20.0001 19.3587 19.8598 19.6089 19.6099C19.8591 19.36 19.9997 19.021 19.9998 18.6675C20 18.314 19.8596 17.9749 19.6095 17.7248L11.9436 10.059C11.6936 9.8089 11.3544 9.66834 11.0007 9.66821Z" fill="#8D8D8D"/>
<path d="M9.99596 7.49976C9.95217 7.49976 9.90881 7.49115 9.86835 7.4744C9.82789 7.45766 9.79113 7.43312 9.76016 7.40218C9.7292 7.37123 9.70463 7.3345 9.68787 7.29407C9.67111 7.25364 9.66248 7.2103 9.66248 7.16654C9.66248 6.28445 9.25219 5.45338 8.552 4.91707C7.85181 4.38077 6.94272 4.20116 6.09125 4.4309C6.00588 4.45394 5.91485 4.44215 5.83818 4.39811C5.76151 4.35407 5.70548 4.2814 5.68242 4.19609C5.67101 4.15384 5.66804 4.10975 5.67367 4.06636C5.6793 4.02296 5.69344 3.98109 5.71526 3.94315C5.73708 3.90521 5.76617 3.87194 5.80086 3.84523C5.83555 3.81853 5.87517 3.79891 5.91745 3.78751C6.96884 3.50382 8.09317 3.72597 8.95766 4.38812C9.82215 5.05026 10.3294 6.07772 10.3294 7.16654C10.3294 7.25491 10.2942 7.33966 10.2317 7.40215C10.1692 7.46464 10.0844 7.49975 9.99596 7.49976Z" fill="#8D8D8D"/>
</svg>
