<svg width="29" height="33" viewBox="0 0 29 33" fill="none" xmlns="http://www.w3.org/2000/svg">
<path d="M20.0455 20.2643H20.0455C25.9719 16.7498 26.7506 9.45275 23.4435 4.68856C19.1773 -1.64827 9.54699 -1.54552 5.41689 4.89855C3.41351 7.92092 3.12687 11.5543 4.2709 14.7061C6.51094 20.8781 14.1067 23.7863 20.0455 20.2643ZM10.2144 11.0569C13.7491 13.9311 18.7072 14.3284 22.671 11.9635C22.3811 14.523 20.9539 16.6507 18.6964 17.9895C14.3315 20.5779 8.8588 18.5586 6.96545 14.3148C8.26911 13.4705 9.37729 12.3584 10.2144 11.0569Z" fill="black"/>
<path d="M28.3359 27.7869L23.2061 21.6506C22.9942 21.3972 22.5919 21.4594 22.4614 21.763C21.0095 25.1392 18.181 27.7563 14.5007 27.7563C10.7933 27.7563 7.96733 25.0622 6.53799 21.7569C6.40768 21.4557 6.00645 21.3969 5.79582 21.6487L0.66441 27.7869C-0.877117 29.6309 0.43592 32.4331 2.8361 32.4331H26.1641C28.5676 32.4331 29.8754 29.6285 28.3359 27.7869Z" fill="black"/>
</svg>
