<svg width="199" height="76" viewBox="0 0 199 76" fill="none" xmlns="http://www.w3.org/2000/svg">
<path d="M11.7484 67.8547C11.9262 67.8993 12.2747 67.972 12.4359 67.8827C12.534 67.8284 13.4632 66.2651 13.6498 66.0032C16.0539 62.6313 19.3996 60.3007 23.5317 59.6132C28.3478 58.8118 34.335 58.4256 38.3016 55.305C40.6742 53.4386 42.5651 50.4845 43.8236 47.7633C45.2144 44.7557 46.1034 41.0878 48.1624 38.4656C49.1276 37.2359 50.4002 36.6903 51.7393 35.9677C51.8488 35.853 51.7279 35.592 51.671 35.4615C50.966 33.8579 49.1539 32.8226 47.4198 33.0819C43.1028 33.7274 40.485 38.8877 37.0894 41.2008C35.6776 42.1624 34.4979 41.4898 33.1938 40.762C32.7269 40.5019 31.1093 39.5533 30.8255 39.2188C30.4244 38.745 30.3832 37.2639 30.4227 36.6535C30.5724 34.3256 32.8399 32.2875 34.5557 30.9317C35.3579 30.2985 36.6594 29.2037 37.7244 29.3553C38.2394 29.4288 38.3664 30.2687 38.4864 30.7128C38.8419 32.0283 38.9943 33.4427 39.3788 34.7477C39.4244 34.901 39.5592 35.4265 39.6871 35.4711C40.118 35.6209 40.344 35.0586 40.5936 34.7924C42.2366 33.0398 45.6585 30.4623 48.1563 30.669C50.6542 30.8757 54.2047 34.1635 54.7574 36.6158C54.831 36.9408 54.9291 37.2999 54.6321 37.5451C54.365 37.7658 52.6563 37.8359 52.0616 38.0679C49.4026 39.1067 48.5189 42.1467 47.5082 44.5158C47.0869 45.5037 46.3206 46.4942 46.4686 47.6276C47.2884 47.5794 47.9487 47.1143 48.7852 47.0539C55.4607 46.5669 57.4812 55.7999 51.2427 58.5648C48.8938 59.6062 48.3534 58.4615 46.2689 58.3415C43.8552 58.2022 41.3748 60.7158 39.5531 62.0576C37.3688 63.6665 33.3996 65.5539 33.1762 68.572C33.03 70.5513 33.4434 71.3387 32.0018 73.0124C28.9802 76.5218 23.8584 75.7958 22.1899 71.3641C21.5488 69.6606 22.0498 68.6963 21.8921 67.0787C21.8317 66.4604 20.5749 65.1939 20.0862 64.7595C19.8278 64.5292 18.7173 63.6131 18.3967 63.7567C18.2925 63.8031 17.9334 64.2384 17.7915 64.3584C17.3326 64.7481 16.7791 65.0818 16.3315 65.4768C14.826 66.8046 14.523 68.8409 13.2399 70.2921C12.7775 70.8141 12.6487 70.9577 11.92 70.7501C11.0784 70.5102 10.834 69.6834 10.2752 69.1264C8.99828 69.2805 8.22756 69.8962 6.97513 69.1054C6.00735 68.4949 5.99421 67.9957 5.75336 67.0034C5.60009 66.3702 5.3207 66.5567 4.80134 66.3509C4.02886 66.0452 2.95248 65.0897 2.76856 64.2586C2.63631 63.6621 2.81322 63.0797 2.80009 62.4964C2.79045 62.0874 2.55661 62.1189 2.32364 61.8965C2.09067 61.674 1.912 61.4761 1.73421 61.2256C1.02392 60.2271 -0.0568486 57.8029 1.95229 57.6548C2.04775 57.0549 1.41278 56.7957 1.12551 56.391C0.684097 55.7701 -0.0296981 53.6769 0.000955728 52.9272C0.0175964 52.5243 0.636803 50.8234 0.820726 50.3628C1.05107 49.7847 1.34885 49.1427 1.81128 48.718C2.29911 48.2704 3.93252 47.2825 4.15936 46.8262C4.38708 46.3672 4.50619 45.2138 4.53334 44.6795C4.73916 40.6858 4.50093 36.389 4.52808 32.355C4.53421 31.4809 4.65683 30.6944 4.51495 29.7949C4.08754 27.0825 0.841746 26.6463 0.316252 23.7947C-0.388785 19.9656 2.33765 16.0752 6.44263 16.6366C8.61117 16.9335 9.07798 17.6219 11.229 16.3099C13.225 15.0916 15.7579 13.3978 17.563 11.9299C17.6943 11.823 18.3258 11.2091 18.3792 11.1951C18.8066 11.0795 19.5686 12.1742 19.7236 12.5219C19.8007 12.6954 19.9338 13.0177 19.8559 13.1902C18.4046 14.3244 16.914 15.4078 15.4338 16.5043C14.0378 17.5387 11.8149 18.6632 11.6888 20.6093C11.666 20.9579 11.7475 21.2723 11.751 21.5832C11.7764 23.9733 11.0696 26.0998 8.95887 27.3899C8.28974 27.7989 7.62937 27.8086 7.37889 28.6747C7.04082 29.844 7.21773 31.057 7.22562 32.2411C7.24839 35.7961 7.26941 39.3519 7.34035 42.899C7.35787 43.7696 7.18533 46.6992 7.7949 47.2571C7.94554 47.3955 8.68912 47.6459 8.95975 47.8115C10.968 49.0376 11.779 51.6616 11.7519 53.9046C11.7475 54.2759 11.525 55.3908 12.033 55.5669C12.8283 55.841 14.4774 55.5608 15.3016 55.3348C17.3615 54.7699 18.9616 53.718 20.7632 52.6609C21.3045 52.343 22.6935 51.8017 22.9195 51.207C22.979 51.0503 23.0071 50.918 22.8196 50.8523C21.2046 50.6535 19.7227 50.2918 18.2251 49.6612C16.0758 48.7565 14.3338 47.3184 14.4126 44.7645C11.243 42.4541 9.33635 38.6136 10.27 34.661C10.4513 34.4254 11.4891 34.1846 11.5215 33.906C11.2413 32.432 10.8454 31.0123 10.9479 29.4936C11.0363 28.1852 11.807 25.2126 13.2259 24.7817C13.6761 24.6451 13.8337 24.773 14.1823 25.0532C15.1124 25.8003 15.8069 27.0159 16.589 27.918C18.3582 29.9605 21.3211 31.3758 23.5352 32.947C23.7839 33.1231 24.8323 33.8386 24.9111 34.0348C25.0258 34.3203 25.0539 36.1622 24.6685 36.1622C22.1531 34.6181 19.5905 33.1336 17.2547 31.3206C16.7222 30.9072 16.0924 30.4474 15.6458 29.9499C15.1098 29.3526 14.6824 28.5442 14.1262 27.9741C13.5561 27.389 13.4194 28.1668 13.2872 28.6835C12.7048 30.9668 13.6831 34.7757 15.1868 36.5966C15.6834 37.1974 16.4638 37.644 16.6057 38.4813C16.575 38.6381 15.7334 39.2696 15.5722 39.2538C14.9872 39.1943 12.8274 37.4426 12.5497 37.7159C12.5515 39.7995 13.8223 41.7096 15.4198 42.9533C16.6136 43.8825 17.1925 43.6277 18.3521 44.1462C18.9765 44.4255 18.952 44.9379 18.7252 45.5256C18.4826 46.1562 17.9177 45.9057 17.4167 46.1763C17.3449 46.4697 17.6961 46.7631 17.908 46.9392C18.9923 47.8378 22.239 48.936 23.6517 49.1594C24.0414 49.2207 25.8806 49.2531 26.0041 49.6139C26.1285 51.4216 24.4171 52.6863 23.1095 53.6339C19.8743 55.9776 16.1774 57.6058 12.1766 58.056C9.99409 58.3021 7.21861 58.8197 5.07372 58.6288C4.25045 58.5552 3.46221 57.9605 2.64244 58.176C2.59777 58.6515 3.22398 60.3007 3.6146 60.489C3.82655 60.5915 4.21016 60.609 4.44576 60.8034L7.44195 60.8717C7.70469 61.4892 7.1503 61.949 6.68786 62.2503C6.29462 62.506 4.87929 63.0263 4.70062 63.2426C4.61829 63.3424 4.61917 63.6262 4.64457 63.7567C4.66822 63.8776 5.29355 64.5055 5.41792 64.5301C6.15887 64.5301 6.91733 64.3356 7.64864 64.2997C7.88248 64.2883 8.86866 64.2489 8.97201 64.4153C8.97726 64.5922 8.76444 64.8129 8.65146 64.9601C8.5122 65.1414 7.77125 65.8683 7.74848 65.9471C7.6101 66.4131 7.75549 67.5035 8.35193 67.6121C9.4108 67.8048 9.9468 66.6986 10.601 66.1065C10.8831 65.8508 11.208 65.638 11.5986 65.7982C12.2476 66.0636 11.7475 66.4069 11.7475 66.8527V67.8556L11.7484 67.8547ZM5.20072 19.1624C5.00541 19.2062 3.91063 19.8631 3.70919 20.0199C1.71144 21.5718 2.75892 25.1706 5.21473 25.6575C8.0629 26.2216 10.2183 23.0563 8.5884 20.6224C7.97357 19.7037 6.29024 18.9181 5.20159 19.1633L5.20072 19.1624ZM36.599 32.2858C36.5438 32.2367 36.3003 32.1885 36.239 32.2674C35.1775 33.3017 32.2566 35.5447 32.148 37.0643C32.0955 37.8026 33.3427 38.5225 33.9189 38.8334C34.1843 38.9771 35.2248 39.5078 35.4516 39.5376C35.9307 39.5998 37.3294 38.4813 37.6736 38.117C38.1413 37.6213 38.2569 37.4995 38.0458 36.826C37.8006 36.0439 37.346 35.3056 37.1122 34.4937C37.0255 34.1933 36.6839 32.3602 36.599 32.2858ZM5.43106 49.5894C5.18057 49.6367 4.28548 50.1009 4.03324 50.2541C0.989759 52.1004 3.4044 57.1302 6.75092 56.123C9.84433 55.192 9.85746 50.5835 6.70713 49.7199C6.35768 49.6244 5.78314 49.5228 5.43193 49.5894H5.43106ZM48.4567 49.6463C48.2684 49.6849 47.4679 50.1622 47.2744 50.2979C44.3167 52.3658 46.727 57.5173 50.4764 56.0214C52.8586 55.0712 53.0495 51.7343 51.0115 50.3312C50.4019 49.9117 49.1872 49.4966 48.4559 49.6472L48.4567 49.6463ZM43.243 53.5455C43.1852 53.4991 43.003 53.4588 42.9417 53.5236C40.2967 57.2222 36.2311 59.7244 31.7548 60.5608C28.8453 61.1047 25.2588 61.0382 22.5043 62.0235C22.1277 62.1583 21.2011 62.4859 21.3824 63.0035C21.4096 63.0806 22.6208 63.7208 22.8039 63.8163C23.304 64.0764 23.854 64.4959 24.4119 64.3908C25.8929 64.1123 26.619 63.1436 28.4091 63.5386C29.9786 63.8846 30.3727 64.6474 32.1244 63.9108C34.3481 62.9755 36.2583 61.1853 38.1982 59.7857C39.6503 58.7382 42.8515 56.9822 43.2981 55.2025C43.3866 54.8522 43.5451 53.7907 43.2421 53.5455H43.243ZM26.7425 66.033C26.4245 66.1048 25.2842 66.9272 25.039 67.1943C23.0018 69.4128 25.4068 73.4503 28.3505 72.5123C31.055 71.6496 31.5166 67.7864 28.9285 66.4586C28.4065 66.1906 27.31 65.906 26.7416 66.0338L26.7425 66.033Z" fill="#2968DA"/>
<path d="M36.0752 10.9673C36.5245 11.0698 36.902 11.3807 37.2435 11.6724C39.159 13.3084 41.5885 15.1354 43.7325 16.471C45.0121 17.268 45.9422 17.2479 47.3838 16.9457C47.9268 16.8318 48.744 16.4841 49.2441 16.5166C54.8423 16.8783 57.0494 24.1292 52.5004 27.2769C49.6522 29.2475 45.5822 28.0993 43.9733 25.111C43.1448 23.5722 43.6843 22.3854 43.4146 20.7993C43.2394 19.7711 42.5107 18.8927 41.7391 18.2349C40.3387 17.0412 38.235 15.5566 36.6883 14.5197C36.2206 14.2061 34.6169 13.5221 34.8665 12.7943C34.92 12.6384 35.7993 11.2686 35.935 11.1092C35.9762 11.0619 36.006 10.9805 36.0761 10.9665L36.0752 10.9673ZM48.3428 19.165C48.1729 19.208 47.1316 19.9156 46.9555 20.0698C44.4279 22.2803 46.9695 27.0063 50.4588 25.5218C52.813 24.5198 53.0977 21.2442 50.9773 19.8254C50.3887 19.4313 49.0295 18.9916 48.3428 19.165Z" fill="#2968DA"/>
<path d="M27.0893 0.0283255C31.542 -0.441991 34.9831 5.04679 32.5684 8.88902C30.4778 12.2154 26.217 12.8889 23.3197 10.1266C19.5274 6.51029 22.1216 0.553819 27.0893 0.0283255ZM26.7433 2.71885C26.5489 2.75914 25.6459 3.3328 25.4462 3.48432C22.5429 5.67826 24.9391 9.83053 28.4223 9.03966C31.3204 8.38192 31.3116 4.63778 28.9889 3.25486C28.4503 2.9343 27.359 2.59098 26.7433 2.71885Z" fill="#2968DA"/>
<path d="M28.8216 14.8919H26.4464V23.5678C27.2776 24.1231 28.1078 24.6784 28.939 25.2337C28.918 23.6169 28.897 22.0001 28.8768 20.3833" fill="#2968DA"/>
<path d="M36.7899 25.1478V26.839L29.1553 26.8311L28.9381 25.1478H36.7899Z" fill="#2968DA"/>
<path d="M26.4464 23.5678L29.1553 26.8311L28.9443 25.1994" fill="#2968DA"/>
<path d="M26.1574 36.3811L28.5326 36.3855L28.5484 27.7096C27.719 27.1526 26.8887 26.5955 26.0593 26.0394C26.0768 27.6562 26.0952 29.2729 26.1128 30.8906" fill="#2968DA"/>
<path d="M18.2085 26.1103L18.2111 24.42L25.8465 24.4419L26.0602 26.1252L18.2085 26.1103Z" fill="#2968DA"/>
<path d="M28.5483 27.7096L25.8464 24.4419L26.054 26.0736" fill="#2968DA"/>
<path d="M75.1 49.3C74 49.3 72.93 49.19 71.89 48.97C70.87 48.75 69.93 48.46 69.07 48.1C68.23 47.72 67.53 47.3 66.97 46.84L68.62 43.78C69.2 44.26 69.86 44.67 70.6 45.01C71.34 45.35 72.12 45.61 72.94 45.79C73.78 45.97 74.62 46.06 75.46 46.06C76.48 46.06 77.37 45.94 78.13 45.7C78.89 45.46 79.47 45.12 79.87 44.68C80.29 44.24 80.5 43.71 80.5 43.09C80.5 42.53 80.31 42.08 79.93 41.74C79.55 41.38 79.04 41.09 78.4 40.87C77.78 40.63 77.09 40.41 76.33 40.21C75.59 39.99 74.84 39.75 74.08 39.49C73.32 39.21 72.63 38.87 72.01 38.47C71.39 38.05 70.88 37.52 70.48 36.88C70.1 36.24 69.91 35.44 69.91 34.48C69.91 33.1 70.29 31.91 71.05 30.91C71.83 29.89 72.9 29.1 74.26 28.54C75.64 27.98 77.24 27.7 79.06 27.7C80.42 27.7 81.71 27.85 82.93 28.15C84.15 28.45 85.2 28.89 86.08 29.47L84.55 32.56C83.77 32.04 82.89 31.64 81.91 31.36C80.93 31.08 79.91 30.94 78.85 30.94C77.81 30.94 76.91 31.07 76.15 31.33C75.39 31.59 74.81 31.95 74.41 32.41C74.01 32.87 73.8 33.41 73.78 34.03C73.78 34.61 73.97 35.08 74.35 35.44C74.73 35.78 75.23 36.07 75.85 36.31C76.47 36.55 77.16 36.78 77.92 37C78.68 37.2 79.43 37.43 80.17 37.69C80.93 37.95 81.63 38.28 82.27 38.68C82.91 39.08 83.42 39.59 83.8 40.21C84.18 40.81 84.37 41.57 84.37 42.49C84.37 43.87 83.98 45.07 83.2 46.09C82.44 47.11 81.36 47.9 79.96 48.46C78.58 49.02 76.96 49.3 75.1 49.3ZM86.8642 55.03C86.0642 55.03 85.2842 54.9 84.5242 54.64C83.7442 54.38 83.1242 54.04 82.6642 53.62L84.5242 50.89C84.8642 51.19 85.2442 51.43 85.6642 51.61C86.1042 51.81 86.6042 51.91 87.1642 51.91C87.7842 51.91 88.3342 51.74 88.8142 51.4C89.3142 51.08 89.8142 50.52 90.3142 49.72L91.7242 47.53L92.0842 47.14L100.904 32.98H104.654L93.6142 50.41C92.8742 51.57 92.1642 52.49 91.4842 53.17C90.8042 53.85 90.0942 54.33 89.3542 54.61C88.6342 54.89 87.8042 55.03 86.8642 55.03ZM90.9742 49.57L87.0442 32.98H90.7942L93.9442 46.81L90.9742 49.57ZM115.698 32.8C117.078 32.8 118.248 33.08 119.208 33.64C120.168 34.2 120.838 35.03 121.218 36.13C121.618 37.21 121.658 38.54 121.338 40.12L119.568 49H115.818L117.558 40.21C117.818 38.91 117.698 37.9 117.198 37.18C116.698 36.44 115.788 36.07 114.468 36.07C113.088 36.07 111.948 36.45 111.048 37.21C110.148 37.97 109.538 39.13 109.218 40.69L107.538 49H103.788L106.968 32.98H110.538L109.638 37.54L109.038 36.1C109.798 34.96 110.748 34.13 111.888 33.61C113.048 33.07 114.318 32.8 115.698 32.8ZM131.554 49.21C130.254 49.21 129.064 48.93 127.984 48.37C126.924 47.81 126.074 47.01 125.434 45.97C124.814 44.91 124.504 43.64 124.504 42.16C124.504 40.8 124.724 39.55 125.164 38.41C125.624 37.27 126.264 36.28 127.084 35.44C127.904 34.6 128.854 33.95 129.934 33.49C131.034 33.03 132.234 32.8 133.534 32.8C134.874 32.8 136.024 33.04 136.984 33.52C137.964 34 138.704 34.73 139.204 35.71C139.704 36.67 139.934 37.87 139.894 39.31C139.854 41.29 139.494 43.03 138.814 44.53C138.134 46.01 137.184 47.16 135.964 47.98C134.744 48.8 133.274 49.21 131.554 49.21ZM132.514 46C133.594 46 134.544 45.75 135.364 45.25C136.184 44.73 136.834 44.02 137.314 43.12C137.794 42.22 138.034 41.18 138.034 40C138.034 38.76 137.664 37.78 136.924 37.06C136.184 36.34 135.144 35.98 133.804 35.98C132.744 35.98 131.794 36.24 130.954 36.76C130.134 37.26 129.484 37.96 129.004 38.86C128.524 39.76 128.284 40.8 128.284 41.98C128.284 43.22 128.654 44.2 129.394 44.92C130.134 45.64 131.174 46 132.514 46ZM136.444 49L137.164 45.34L138.184 41.08L138.694 36.79L139.444 32.98H143.194L140.014 49H136.444ZM154.611 49.21C153.271 49.21 152.111 48.97 151.131 48.49C150.151 47.99 149.411 47.26 148.911 46.3C148.411 45.32 148.181 44.11 148.221 42.67C148.261 40.67 148.621 38.93 149.301 37.45C149.981 35.97 150.931 34.83 152.151 34.03C153.391 33.21 154.861 32.8 156.561 32.8C157.881 32.8 159.071 33.08 160.131 33.64C161.191 34.18 162.031 34.98 162.651 36.04C163.291 37.08 163.611 38.34 163.611 39.82C163.611 41.18 163.381 42.43 162.921 43.57C162.481 44.71 161.851 45.7 161.031 46.54C160.211 47.38 159.251 48.04 158.151 48.52C157.071 48.98 155.891 49.21 154.611 49.21ZM143.751 54.82L148.101 32.98H151.671L150.951 36.64L149.961 40.9L149.421 45.19L147.501 54.82H143.751ZM154.311 46C155.391 46 156.341 45.75 157.161 45.25C157.981 44.73 158.631 44.02 159.111 43.12C159.591 42.22 159.831 41.18 159.831 40C159.831 38.76 159.461 37.78 158.721 37.06C157.981 36.34 156.941 35.98 155.601 35.98C154.541 35.98 153.591 36.24 152.751 36.76C151.931 37.26 151.281 37.96 150.801 38.86C150.321 39.76 150.081 40.8 150.081 41.98C150.081 43.22 150.451 44.2 151.191 44.92C151.931 45.64 152.971 46 154.311 46ZM170.947 49.21C169.547 49.21 168.237 49.04 167.017 48.7C165.797 48.36 164.857 47.95 164.197 47.47L165.757 44.59C166.417 45.05 167.237 45.43 168.217 45.73C169.217 46.01 170.257 46.15 171.337 46.15C172.577 46.15 173.487 45.98 174.067 45.64C174.667 45.3 174.967 44.83 174.967 44.23C174.967 43.79 174.757 43.46 174.337 43.24C173.917 43.02 173.377 42.84 172.717 42.7C172.077 42.56 171.377 42.41 170.617 42.25C169.877 42.09 169.177 41.87 168.517 41.59C167.877 41.31 167.347 40.9 166.927 40.36C166.507 39.82 166.297 39.1 166.297 38.2C166.297 37.06 166.617 36.09 167.257 35.29C167.897 34.49 168.787 33.88 169.927 33.46C171.087 33.02 172.417 32.8 173.917 32.8C174.997 32.8 176.057 32.92 177.097 33.16C178.137 33.4 178.997 33.74 179.677 34.18L178.297 37.06C177.577 36.6 176.797 36.28 175.957 36.1C175.137 35.92 174.337 35.83 173.557 35.83C172.337 35.83 171.427 36.02 170.827 36.4C170.247 36.76 169.957 37.22 169.957 37.78C169.957 38.22 170.167 38.56 170.587 38.8C171.007 39.04 171.537 39.24 172.177 39.4C172.837 39.54 173.537 39.69 174.277 39.85C175.037 39.99 175.737 40.2 176.377 40.48C177.037 40.76 177.577 41.17 177.997 41.71C178.417 42.23 178.627 42.93 178.627 43.81C178.627 44.97 178.297 45.96 177.637 46.78C176.997 47.58 176.097 48.19 174.937 48.61C173.777 49.01 172.447 49.21 170.947 49.21ZM188.967 49.21C187.367 49.21 185.977 48.92 184.797 48.34C183.617 47.74 182.697 46.92 182.037 45.88C181.397 44.82 181.077 43.58 181.077 42.16C181.077 40.34 181.477 38.73 182.277 37.33C183.077 35.93 184.167 34.83 185.547 34.03C186.947 33.21 188.537 32.8 190.317 32.8C191.817 32.8 193.117 33.08 194.217 33.64C195.317 34.2 196.167 35.01 196.767 36.07C197.387 37.11 197.697 38.36 197.697 39.82C197.697 40.2 197.677 40.59 197.637 40.99C197.597 41.39 197.537 41.76 197.457 42.1H183.867L184.287 39.61H195.687L194.157 40.45C194.317 39.43 194.247 38.58 193.947 37.9C193.647 37.22 193.167 36.7 192.507 36.34C191.847 35.98 191.057 35.8 190.137 35.8C189.037 35.8 188.077 36.06 187.257 36.58C186.457 37.08 185.837 37.8 185.397 38.74C184.957 39.66 184.737 40.74 184.737 41.98C184.737 43.28 185.107 44.28 185.847 44.98C186.607 45.68 187.777 46.03 189.357 46.03C190.257 46.03 191.117 45.89 191.937 45.61C192.757 45.31 193.437 44.9 193.977 44.38L195.537 46.99C194.697 47.73 193.697 48.29 192.537 48.67C191.397 49.03 190.207 49.21 188.967 49.21Z" fill="#2968DA"/>
</svg>
