<svg width="132" height="43" viewBox="0 0 132 43" fill="none" xmlns="http://www.w3.org/2000/svg">
<path d="M6.61407 38.2005C6.71417 38.2257 6.91041 38.2666 7.00113 38.2163C7.05636 38.1857 7.5795 37.3056 7.68453 37.1582C9.038 35.2599 10.9215 33.9478 13.2478 33.5607C15.9592 33.1096 19.3298 32.8921 21.5629 31.1353C22.8987 30.0846 23.9632 28.4215 24.6717 26.8895C25.4547 25.1963 25.9552 23.1313 27.1144 21.6551C27.6578 20.9628 28.3742 20.6556 29.1281 20.2489C29.1897 20.1843 29.1217 20.0373 29.0896 19.9639C28.6927 19.0611 27.6726 18.4782 26.6963 18.6242C24.2659 18.9876 22.7922 21.8928 20.8805 23.1949C20.0857 23.7363 19.4215 23.3577 18.6874 22.9479C18.4246 22.8015 17.5139 22.2675 17.3541 22.0791C17.1283 21.8124 17.1051 20.9786 17.1273 20.6349C17.2116 19.3244 18.4882 18.177 19.4541 17.4137C19.9057 17.0572 20.6384 16.4409 21.238 16.5262C21.5279 16.5676 21.5994 17.0405 21.667 17.2904C21.8672 18.031 21.953 18.8273 22.1694 19.562C22.1951 19.6483 22.271 19.9441 22.343 19.9693C22.5856 20.0536 22.7128 19.7371 22.8533 19.5872C23.7783 18.6005 25.7047 17.1494 27.111 17.2658C28.5172 17.3822 30.5161 19.2331 30.8272 20.6137C30.8686 20.7967 30.9239 20.9988 30.7567 21.1369C30.6063 21.2611 29.6443 21.3006 29.3096 21.4312C27.8126 22.016 27.3151 23.7275 26.7461 25.0612C26.5089 25.6174 26.0775 26.1751 26.1608 26.8131C26.6223 26.786 26.9941 26.5241 27.465 26.4901C31.2232 26.216 32.3607 31.4139 28.8485 32.9705C27.5261 33.5568 27.2219 32.9124 26.0484 32.8448C24.6895 32.7664 23.2931 34.1815 22.2675 34.9369C21.0378 35.8427 18.8032 36.9052 18.6775 38.6043C18.5952 39.7187 18.8279 40.1619 18.0163 41.1042C16.3152 43.0799 13.4317 42.6712 12.4924 40.1762C12.1315 39.2172 12.4136 38.6744 12.3248 37.7637C12.2908 37.4156 11.5832 36.7026 11.3081 36.458C11.1626 36.3283 10.5374 35.8126 10.357 35.8934C10.2983 35.9196 10.0961 36.1646 10.0163 36.2322C9.75788 36.4516 9.44626 36.6395 9.19431 36.8618C8.34672 37.6093 8.17612 38.7557 7.45377 39.5727C7.19343 39.8666 7.12095 39.9475 6.71072 39.8306C6.23688 39.6955 6.09931 39.23 5.78473 38.9165C5.06584 39.0032 4.63194 39.3499 3.92685 38.9046C3.38201 38.561 3.37461 38.2799 3.23902 37.7213C3.15273 37.3648 2.99544 37.4698 2.70305 37.3539C2.26816 37.1818 1.66218 36.6439 1.55864 36.176C1.48418 35.8402 1.58378 35.5123 1.57639 35.1839C1.57096 34.9537 1.43931 34.9714 1.30816 34.8462C1.177 34.7209 1.07641 34.6095 0.976322 34.4685C0.576443 33.9064 -0.0320045 32.5416 1.0991 32.4582C1.15284 32.1205 0.795365 31.9745 0.633639 31.7467C0.385132 31.3971 -0.0167194 30.2187 0.000538054 29.7966C0.00990637 29.5698 0.358506 28.6123 0.462051 28.3529C0.591728 28.0275 0.759372 27.6661 1.01971 27.427C1.29435 27.175 2.21393 26.6188 2.34163 26.3619C2.46983 26.1036 2.53689 25.4542 2.55217 25.1534C2.66804 22.905 2.53393 20.486 2.54921 18.2149C2.55266 17.7229 2.62169 17.2801 2.54182 16.7737C2.3012 15.2467 0.473884 15.0011 0.178043 13.3957C-0.218878 11.24 1.31605 9.04978 3.62706 9.36584C4.8479 9.53299 5.11071 9.92054 6.32168 9.18192C7.44539 8.49606 8.87135 7.54247 9.88756 6.71608C9.96152 6.65593 10.317 6.31029 10.3471 6.3024C10.5877 6.23731 11.0167 6.85365 11.104 7.0494C11.1474 7.14702 11.2223 7.32847 11.1784 7.42561C10.3614 8.06413 9.5222 8.67406 8.68891 9.29138C7.90296 9.8737 6.65155 10.5068 6.58055 11.6024C6.56773 11.7986 6.61358 11.9757 6.61555 12.1507C6.62985 13.4963 6.23195 14.6934 5.04365 15.4197C4.66694 15.65 4.29517 15.6554 4.15415 16.1431C3.96383 16.8013 4.06343 17.4842 4.06787 18.1508C4.08068 20.1522 4.09252 22.1541 4.13246 24.151C4.14232 24.6411 4.04518 26.2904 4.38836 26.6045C4.47317 26.6824 4.89178 26.8234 5.04414 26.9166C6.17475 27.6069 6.63133 29.0842 6.61605 30.3469C6.61358 30.556 6.48834 31.1837 6.77432 31.2828C7.22203 31.4371 8.15048 31.2793 8.61446 31.1521C9.77415 30.8341 10.675 30.2419 11.6892 29.6468C11.994 29.4678 12.776 29.1631 12.9032 28.8283C12.9367 28.74 12.9525 28.6655 12.847 28.6286C11.9377 28.5166 11.1035 28.313 10.2603 27.958C9.05033 27.4487 8.06961 26.639 8.11399 25.2012C6.32957 23.9005 5.25616 21.7384 5.78177 19.5132C5.88384 19.3806 6.46813 19.245 6.48637 19.0882C6.32859 18.2583 6.10572 17.4591 6.16341 16.6041C6.21321 15.8674 6.64711 14.194 7.44588 13.9514C7.69932 13.8745 7.78807 13.9464 7.98431 14.1042C8.50795 14.5248 8.89896 15.2092 9.33927 15.7171C10.3353 16.8669 12.0033 17.6637 13.2498 18.5483C13.3898 18.6474 13.98 19.0502 14.0244 19.1607C14.089 19.3214 14.1048 20.3583 13.8878 20.3583C12.4717 19.489 11.029 18.6533 9.714 17.6326C9.41421 17.3999 9.0597 17.141 8.80823 16.861C8.50647 16.5247 8.26586 16.0696 7.95276 15.7486C7.63177 15.4192 7.55485 15.8571 7.4804 16.148C7.15251 17.4334 7.70326 19.5778 8.54986 20.6029C8.82943 20.9411 9.26876 21.1926 9.34864 21.664C9.33138 21.7522 8.85754 22.1077 8.76681 22.0989C8.43744 22.0653 7.22154 21.0792 7.06523 21.233C7.06622 22.406 7.78166 23.4814 8.68102 24.1816C9.35307 24.7047 9.67899 24.5612 10.3318 24.8531C10.6834 25.0104 10.6696 25.2989 10.5419 25.6297C10.4053 25.9847 10.0873 25.8437 9.80522 25.9961C9.76479 26.1612 9.96251 26.3264 10.0818 26.4255C10.6922 26.9314 12.5201 27.5497 13.3154 27.6755C13.5348 27.71 14.5702 27.7282 14.6398 27.9314C14.7098 28.9491 13.7463 29.6611 13.0102 30.1946C11.1888 31.514 9.10753 32.4306 6.85519 32.6841C5.62646 32.8226 4.06392 33.114 2.85639 33.0065C2.39291 32.9651 1.94915 32.6303 1.48763 32.7516C1.46249 33.0193 1.81503 33.9478 2.03494 34.0538C2.15426 34.1115 2.37023 34.1214 2.50286 34.2308L4.18965 34.2693C4.33757 34.6169 4.02546 34.8758 3.76512 35.0454C3.54373 35.1893 2.74693 35.4822 2.64635 35.604C2.6 35.6602 2.60049 35.82 2.61479 35.8934C2.6281 35.9615 2.98015 36.315 3.05017 36.3288C3.46731 36.3288 3.8943 36.2194 4.30602 36.1991C4.43767 36.1927 4.99286 36.1706 5.05105 36.2642C5.054 36.3638 4.93419 36.4881 4.87058 36.5709C4.79218 36.673 4.37505 37.0822 4.36223 37.1266C4.28432 37.3889 4.36617 38.0028 4.70195 38.0639C5.29807 38.1724 5.59983 37.5497 5.96815 37.2164C6.12692 37.0724 6.30985 36.9526 6.52976 37.0428C6.89512 37.1922 6.61358 37.3855 6.61358 37.6364V38.201L6.61407 38.2005ZM2.92789 10.7878C2.81794 10.8125 2.2016 11.1823 2.08819 11.2706C0.963502 12.1443 1.55321 14.1703 2.93578 14.4444C4.53924 14.762 5.75268 12.98 4.83508 11.6098C4.48895 11.0926 3.54127 10.6503 2.92838 10.7883L2.92789 10.7878ZM20.6044 18.176C20.5734 18.1484 20.4363 18.1213 20.4018 18.1656C19.8042 18.748 18.1598 20.0107 18.0986 20.8662C18.0691 21.2818 18.7712 21.6871 19.0956 21.8622C19.245 21.943 19.8308 22.2418 19.9585 22.2586C20.2282 22.2936 21.0156 21.664 21.2094 21.4588C21.4727 21.1798 21.5378 21.1112 21.419 20.7321C21.2809 20.2918 21.025 19.8761 20.8934 19.419C20.8445 19.2499 20.6522 18.2179 20.6044 18.176ZM3.05757 27.9176C2.91655 27.9442 2.41263 28.2055 2.27063 28.2918C0.557213 29.3312 1.9166 32.1629 3.80062 31.5959C5.54214 31.0717 5.54954 28.4772 3.77597 27.991C3.57923 27.9373 3.25578 27.8801 3.05806 27.9176H3.05757ZM27.2801 27.9496C27.1741 27.9713 26.7234 28.24 26.6144 28.3165C24.9493 29.4806 26.3063 32.3808 28.4171 31.5387C29.7582 31.0037 29.8657 29.1251 28.7184 28.3352C28.3752 28.099 27.6913 27.8653 27.2796 27.9501L27.2801 27.9496ZM24.3448 30.1448C24.3123 30.1186 24.2097 30.0959 24.1752 30.1324C22.6862 32.2147 20.3973 33.6234 17.8773 34.0942C16.2393 34.4004 14.2202 34.363 12.6695 34.9177C12.4574 34.9936 11.9358 35.178 12.0378 35.4694C12.0531 35.5128 12.735 35.8732 12.8381 35.927C13.1196 36.0734 13.4293 36.3096 13.7434 36.2504C14.5771 36.0936 14.9859 35.5483 15.9937 35.7707C16.8773 35.9654 17.0992 36.3949 18.0853 35.9802C19.3372 35.4536 20.4126 34.4458 21.5048 33.6579C22.3223 33.0682 24.1244 32.0796 24.3759 31.0776C24.4257 30.8804 24.515 30.2828 24.3443 30.1448H24.3448ZM15.0554 37.1749C14.8764 37.2154 14.2345 37.6784 14.0964 37.8287C12.9495 39.0777 14.3035 41.3507 15.9607 40.8227C17.4833 40.337 17.7431 38.1621 16.2861 37.4146C15.9923 37.2637 15.3749 37.1034 15.0549 37.1754L15.0554 37.1749Z" fill="black"/>
<path d="M20.3095 6.17432C20.5624 6.23201 20.7749 6.40705 20.9672 6.57124C22.0455 7.4923 23.4133 8.52084 24.6204 9.27277C25.3407 9.72146 25.8644 9.71012 26.676 9.54001C26.9817 9.47591 27.4417 9.28016 27.7232 9.29841C30.8749 9.50205 32.1175 13.5842 29.5565 15.3563C27.953 16.4657 25.6617 15.8192 24.7559 14.1369C24.2895 13.2706 24.5932 12.6025 24.4414 11.7095C24.3428 11.1307 23.9325 10.6361 23.4981 10.2658C22.7097 9.59376 21.5254 8.758 20.6546 8.17421C20.3913 7.99769 19.4885 7.6126 19.629 7.20286C19.6591 7.1151 20.1541 6.34394 20.2306 6.2542C20.2537 6.22757 20.2705 6.18172 20.3099 6.17383L20.3095 6.17432ZM27.2159 10.7894C27.1202 10.8136 26.534 11.212 26.4348 11.2988C25.0119 12.5433 26.4427 15.2039 28.4071 14.3681C29.7325 13.8041 29.8927 11.96 28.699 11.1612C28.3677 10.9393 27.6024 10.6918 27.2159 10.7894Z" fill="black"/>
<path d="M15.2508 0.0159466C17.7575 -0.248831 19.6948 2.84123 18.3354 5.00433C17.1585 6.877 14.7597 7.25617 13.1286 5.70103C10.9936 3.66515 12.4541 0.311788 15.2508 0.0159466ZM15.056 1.53065C14.9466 1.55334 14.4382 1.8763 14.3258 1.9616C12.6913 3.19673 14.0403 5.53438 16.0012 5.08913C17.6328 4.71884 17.6279 2.61097 16.3202 1.83241C16.017 1.65195 15.4026 1.45867 15.056 1.53065Z" fill="black"/>
<path d="M16.2259 8.38379H14.8887V13.2681C15.3566 13.5807 15.824 13.8933 16.2919 14.2059C16.2801 13.2957 16.2683 12.3855 16.2569 11.4753" fill="black"/>
<path d="M20.7119 14.1577V15.1098L16.4138 15.1054L16.2915 14.1577H20.7119Z" fill="black"/>
<path d="M14.8887 13.2683L16.4137 15.1055L16.2949 14.1869" fill="black"/>
<path d="M14.7261 20.4816L16.0633 20.484L16.0722 15.5997C15.6053 15.2861 15.1378 14.9725 14.6709 14.6594C14.6808 15.5696 14.6911 16.4798 14.701 17.3905" fill="black"/>
<path d="M10.251 14.6994L10.2525 13.7478L14.551 13.7601L14.6713 14.7078L10.251 14.6994Z" fill="black"/>
<path d="M16.0719 15.5999L14.5508 13.7603L14.6676 14.6788" fill="black"/>
<path d="M48.3604 30.6561C47.6271 30.6561 46.9138 30.5827 46.2204 30.4361C45.5404 30.2894 44.9138 30.0961 44.3404 29.8561C43.7804 29.6027 43.3138 29.3227 42.9404 29.0161L44.0404 26.9761C44.4271 27.2961 44.8671 27.5694 45.3604 27.7961C45.8538 28.0227 46.3738 28.1961 46.9204 28.3161C47.4804 28.4361 48.0404 28.4961 48.6004 28.4961C49.2804 28.4961 49.8738 28.4161 50.3804 28.2561C50.8871 28.0961 51.2738 27.8694 51.5404 27.5761C51.8204 27.2827 51.9604 26.9294 51.9604 26.5161C51.9604 26.1427 51.8338 25.8427 51.5804 25.6161C51.3271 25.3761 50.9871 25.1827 50.5604 25.0361C50.1471 24.8761 49.6871 24.7294 49.1804 24.5961C48.6871 24.4494 48.1871 24.2894 47.6804 24.1161C47.1738 23.9294 46.7138 23.7027 46.3004 23.4361C45.8871 23.1561 45.5471 22.8027 45.2804 22.3761C45.0271 21.9494 44.9004 21.4161 44.9004 20.7761C44.9004 19.8561 45.1538 19.0627 45.6604 18.3961C46.1804 17.7161 46.8938 17.1894 47.8004 16.8161C48.7204 16.4427 49.7871 16.2561 51.0004 16.2561C51.9071 16.2561 52.7671 16.3561 53.5804 16.5561C54.3938 16.7561 55.0938 17.0494 55.6804 17.4361L54.6604 19.4961C54.1404 19.1494 53.5538 18.8827 52.9004 18.6961C52.2471 18.5094 51.5671 18.4161 50.8604 18.4161C50.1671 18.4161 49.5671 18.5027 49.0604 18.6761C48.5538 18.8494 48.1671 19.0894 47.9004 19.3961C47.6338 19.7027 47.4938 20.0627 47.4804 20.4761C47.4804 20.8627 47.6071 21.1761 47.8604 21.4161C48.1138 21.6427 48.4471 21.8361 48.8604 21.9961C49.2738 22.1561 49.7338 22.3094 50.2404 22.4561C50.7471 22.5894 51.2471 22.7427 51.7404 22.9161C52.2471 23.0894 52.7138 23.3094 53.1404 23.5761C53.5671 23.8427 53.9071 24.1827 54.1604 24.5961C54.4138 24.9961 54.5405 25.5027 54.5405 26.1161C54.5405 27.0361 54.2805 27.8361 53.7604 28.5161C53.2538 29.1961 52.5338 29.7227 51.6004 30.0961C50.6804 30.4694 49.6004 30.6561 48.3604 30.6561ZM56.2033 34.4761C55.6699 34.4761 55.1499 34.3894 54.6433 34.2161C54.1233 34.0427 53.7099 33.8161 53.4033 33.5361L54.6433 31.7161C54.8699 31.9161 55.1233 32.0761 55.4033 32.1961C55.6966 32.3294 56.0299 32.3961 56.4033 32.3961C56.8166 32.3961 57.1833 32.2827 57.5033 32.0561C57.8366 31.8427 58.1699 31.4694 58.5033 30.9361L59.4433 29.4761L59.6833 29.2161L65.5633 19.7761H68.0633L60.7033 31.3961C60.2099 32.1694 59.7366 32.7827 59.2833 33.2361C58.8299 33.6894 58.3566 34.0094 57.8633 34.1961C57.3833 34.3827 56.8299 34.4761 56.2033 34.4761ZM58.9433 30.8361L56.3233 19.7761H58.8233L60.9233 28.9961L58.9433 30.8361ZM75.4258 19.6561C76.3458 19.6561 77.1258 19.8427 77.7658 20.2161C78.4058 20.5894 78.8524 21.1427 79.1058 21.8761C79.3724 22.5961 79.3991 23.4827 79.1858 24.5361L78.0058 30.4561H75.5058L76.6658 24.5961C76.8391 23.7294 76.7591 23.0561 76.4258 22.5761C76.0924 22.0827 75.4858 21.8361 74.6058 21.8361C73.6858 21.8361 72.9258 22.0894 72.3258 22.5961C71.7258 23.1027 71.3191 23.8761 71.1058 24.9161L69.9858 30.4561H67.4858L69.6058 19.7761H71.9858L71.3858 22.8161L70.9858 21.8561C71.4924 21.0961 72.1258 20.5427 72.8858 20.1961C73.6591 19.8361 74.5058 19.6561 75.4258 19.6561ZM85.9967 30.5961C85.13 30.5961 84.3367 30.4094 83.6167 30.0361C82.91 29.6627 82.3434 29.1294 81.9167 28.4361C81.5034 27.7294 81.2967 26.8827 81.2967 25.8961C81.2967 24.9894 81.4434 24.1561 81.7367 23.3961C82.0434 22.6361 82.47 21.9761 83.0167 21.4161C83.5634 20.8561 84.1967 20.4227 84.9167 20.1161C85.65 19.8094 86.45 19.6561 87.3167 19.6561C88.21 19.6561 88.9767 19.8161 89.6167 20.1361C90.27 20.4561 90.7634 20.9427 91.0967 21.5961C91.43 22.2361 91.5834 23.0361 91.5567 23.9961C91.53 25.3161 91.29 26.4761 90.8367 27.4761C90.3834 28.4627 89.75 29.2294 88.9367 29.7761C88.1234 30.3227 87.1434 30.5961 85.9967 30.5961ZM86.6367 28.4561C87.3567 28.4561 87.99 28.2894 88.5367 27.9561C89.0834 27.6094 89.5167 27.1361 89.8367 26.5361C90.1567 25.9361 90.3167 25.2427 90.3167 24.4561C90.3167 23.6294 90.07 22.9761 89.5767 22.4961C89.0834 22.0161 88.39 21.7761 87.4967 21.7761C86.79 21.7761 86.1567 21.9494 85.5967 22.2961C85.05 22.6294 84.6167 23.0961 84.2967 23.6961C83.9767 24.2961 83.8167 24.9894 83.8167 25.7761C83.8167 26.6027 84.0634 27.2561 84.5567 27.7361C85.05 28.2161 85.7434 28.4561 86.6367 28.4561ZM89.2567 30.4561L89.7367 28.0161L90.4167 25.1761L90.7567 22.3161L91.2567 19.7761H93.7567L91.6367 30.4561H89.2567ZM101.368 30.5961C100.474 30.5961 99.701 30.4361 99.0476 30.1161C98.3943 29.7827 97.901 29.2961 97.5676 28.6561C97.2343 28.0027 97.081 27.1961 97.1076 26.2361C97.1343 24.9027 97.3743 23.7427 97.8276 22.7561C98.281 21.7694 98.9143 21.0094 99.7276 20.4761C100.554 19.9294 101.534 19.6561 102.668 19.6561C103.548 19.6561 104.341 19.8427 105.048 20.2161C105.754 20.5761 106.314 21.1094 106.728 21.8161C107.154 22.5094 107.368 23.3494 107.368 24.3361C107.368 25.2427 107.214 26.0761 106.908 26.8361C106.614 27.5961 106.194 28.2561 105.648 28.8161C105.101 29.3761 104.461 29.8161 103.728 30.1361C103.008 30.4427 102.221 30.5961 101.368 30.5961ZM94.1276 34.3361L97.0276 19.7761H99.4076L98.9276 22.2161L98.2676 25.0561L97.9076 27.9161L96.6276 34.3361H94.1276ZM101.168 28.4561C101.888 28.4561 102.521 28.2894 103.068 27.9561C103.614 27.6094 104.048 27.1361 104.368 26.5361C104.688 25.9361 104.848 25.2427 104.848 24.4561C104.848 23.6294 104.601 22.9761 104.108 22.4961C103.614 22.0161 102.921 21.7761 102.028 21.7761C101.321 21.7761 100.688 21.9494 100.128 22.2961C99.581 22.6294 99.1476 23.0961 98.8276 23.6961C98.5076 24.2961 98.3476 24.9894 98.3476 25.7761C98.3476 26.6027 98.5943 27.2561 99.0876 27.7361C99.581 28.2161 100.274 28.4561 101.168 28.4561ZM112.259 30.5961C111.325 30.5961 110.452 30.4827 109.639 30.2561C108.825 30.0294 108.199 29.7561 107.759 29.4361L108.799 27.5161C109.239 27.8227 109.785 28.0761 110.439 28.2761C111.105 28.4627 111.799 28.5561 112.519 28.5561C113.345 28.5561 113.952 28.4427 114.339 28.2161C114.739 27.9894 114.939 27.6761 114.939 27.2761C114.939 26.9827 114.799 26.7627 114.519 26.6161C114.239 26.4694 113.879 26.3494 113.439 26.2561C113.012 26.1627 112.545 26.0627 112.039 25.9561C111.545 25.8494 111.079 25.7027 110.639 25.5161C110.212 25.3294 109.859 25.0561 109.579 24.6961C109.299 24.3361 109.159 23.8561 109.159 23.2561C109.159 22.4961 109.372 21.8494 109.799 21.3161C110.225 20.7827 110.819 20.3761 111.579 20.0961C112.352 19.8027 113.239 19.6561 114.239 19.6561C114.959 19.6561 115.665 19.7361 116.359 19.8961C117.052 20.0561 117.625 20.2827 118.079 20.5761L117.159 22.4961C116.679 22.1894 116.159 21.9761 115.599 21.8561C115.052 21.7361 114.519 21.6761 113.999 21.6761C113.185 21.6761 112.579 21.8027 112.179 22.0561C111.792 22.2961 111.599 22.6027 111.599 22.9761C111.599 23.2694 111.739 23.4961 112.019 23.6561C112.299 23.8161 112.652 23.9494 113.079 24.0561C113.519 24.1494 113.985 24.2494 114.479 24.3561C114.985 24.4494 115.452 24.5894 115.879 24.7761C116.319 24.9627 116.679 25.2361 116.959 25.5961C117.239 25.9427 117.379 26.4094 117.379 26.9961C117.379 27.7694 117.159 28.4294 116.719 28.9761C116.292 29.5094 115.692 29.9161 114.919 30.1961C114.145 30.4627 113.259 30.5961 112.259 30.5961ZM124.272 30.5961C123.205 30.5961 122.278 30.4027 121.492 30.0161C120.705 29.6161 120.092 29.0694 119.652 28.3761C119.225 27.6694 119.012 26.8427 119.012 25.8961C119.012 24.6827 119.278 23.6094 119.812 22.6761C120.345 21.7427 121.072 21.0094 121.992 20.4761C122.925 19.9294 123.985 19.6561 125.172 19.6561C126.172 19.6561 127.038 19.8427 127.772 20.2161C128.505 20.5894 129.072 21.1294 129.472 21.8361C129.885 22.5294 130.092 23.3627 130.092 24.3361C130.092 24.5894 130.078 24.8494 130.052 25.1161C130.025 25.3827 129.985 25.6294 129.932 25.8561H120.872L121.152 24.1961H128.752L127.732 24.7561C127.838 24.0761 127.792 23.5094 127.592 23.0561C127.392 22.6027 127.072 22.2561 126.632 22.0161C126.192 21.7761 125.665 21.6561 125.052 21.6561C124.318 21.6561 123.678 21.8294 123.132 22.1761C122.598 22.5094 122.185 22.9894 121.892 23.6161C121.598 24.2294 121.452 24.9494 121.452 25.7761C121.452 26.6427 121.698 27.3094 122.192 27.7761C122.698 28.2427 123.478 28.4761 124.532 28.4761C125.132 28.4761 125.705 28.3827 126.252 28.1961C126.798 27.9961 127.252 27.7227 127.612 27.3761L128.652 29.1161C128.092 29.6094 127.425 29.9827 126.652 30.2361C125.892 30.4761 125.098 30.5961 124.272 30.5961Z" fill="black"/>
</svg>
