<svg width="276" height="89" viewBox="0 0 276 89" fill="none" xmlns="http://www.w3.org/2000/svg">
<path d="M13.8562 80.0287C14.0659 80.0814 14.477 80.1671 14.667 80.0618C14.7827 79.9977 15.8787 78.1539 16.0987 77.845C18.9342 73.8681 22.8801 71.1195 27.7536 70.3086C33.4338 69.3634 40.4951 68.9079 45.1734 65.2275C47.9716 63.0262 50.2018 59.5421 51.6862 56.3327C53.3265 52.7855 54.3749 48.4595 56.8034 45.3668C57.9417 43.9165 59.4426 43.273 61.022 42.4208C61.1511 42.2855 61.0086 41.9777 60.9414 41.8238C60.1099 39.9324 57.9727 38.7115 55.9275 39.0172C50.836 39.7785 47.7485 45.8647 43.7437 48.5927C42.0786 49.7269 40.6872 48.9336 39.1492 48.0752C38.5986 47.7684 36.6907 46.6497 36.356 46.2552C35.8829 45.6963 35.8344 43.9496 35.8809 43.2296C36.0575 40.484 38.7318 38.0803 40.7554 36.4813C41.7016 35.7345 43.2366 34.4433 44.4926 34.622C45.1 34.7088 45.2498 35.6994 45.3913 36.2231C45.8107 37.7746 45.9904 39.4428 46.4439 40.9819C46.4976 41.1627 46.6567 41.7825 46.8075 41.8351C47.3157 42.0118 47.5822 41.3486 47.8766 41.0346C49.8144 38.9676 53.8502 35.9277 56.7962 36.1714C59.7422 36.4152 63.9298 40.2929 64.5816 43.1852C64.6683 43.5684 64.784 43.9919 64.4339 44.2812C64.1188 44.5415 62.1035 44.6241 61.4021 44.8978C58.2661 46.1229 57.2238 49.7083 56.0318 52.5025C55.5349 53.6676 54.6311 54.8359 54.8057 56.1726C55.7725 56.1158 56.5514 55.5673 57.5378 55.496C65.411 54.9217 67.7941 65.8111 60.4363 69.0721C57.6659 70.3003 57.0286 68.9502 54.5702 68.8087C51.7233 68.6445 48.798 71.6091 46.6495 73.1916C44.0733 75.0891 39.3919 77.3151 39.1285 80.8747C38.956 83.2092 39.4435 84.1378 37.7433 86.1118C34.1796 90.2508 28.1389 89.3945 26.1711 84.1678C25.415 82.1587 26.0058 81.0214 25.8199 79.1135C25.7486 78.3842 24.2663 76.8906 23.6899 76.3782C23.3852 76.1066 22.0754 75.0261 21.6974 75.1955C21.5744 75.2502 21.1509 75.7636 20.9836 75.9051C20.4423 76.3648 19.7895 76.7584 19.2616 77.2242C17.486 78.7902 17.1286 81.1918 15.6153 82.9034C15.0699 83.5191 14.9181 83.6885 14.0586 83.4437C13.066 83.1606 12.7778 82.1855 12.1187 81.5286C10.6127 81.7104 9.70369 82.4365 8.22656 81.5038C7.08514 80.7838 7.06965 80.195 6.78559 79.0247C6.60482 78.2778 6.27531 78.4979 5.66276 78.2551C4.75169 77.8946 3.48219 76.7677 3.26527 75.7874C3.10929 75.0839 3.31795 74.397 3.30246 73.7091C3.29109 73.2267 3.01529 73.2639 2.74053 73.0015C2.46576 72.7391 2.25504 72.5057 2.04535 72.2103C1.20762 71.0327 -0.067048 68.1735 2.30255 67.9989C2.41515 67.2913 1.66625 66.9856 1.32744 66.5083C0.806833 65.776 -0.0350263 63.3072 0.0011272 62.423C0.0207534 61.9478 0.751054 59.9418 0.967975 59.3985C1.23964 58.7167 1.59085 57.9596 2.13625 57.4586C2.71161 56.9308 4.63807 55.7656 4.90561 55.2274C5.17417 54.6861 5.31466 53.3257 5.34668 52.6956C5.58942 47.9854 5.30846 42.9177 5.34048 38.1599C5.34771 37.129 5.49232 36.2014 5.32499 35.1405C4.8209 31.9415 0.992766 31.4271 0.372992 28.0638C-0.458539 23.5477 2.75706 18.9593 7.59852 19.6214C10.1561 19.9716 10.7067 20.7835 13.2436 19.2361C15.5977 17.7993 18.5851 15.8015 20.714 14.0703C20.8689 13.9443 21.6137 13.2202 21.6767 13.2036C22.1808 13.0673 23.0794 14.3585 23.2623 14.7686C23.3532 14.9731 23.5102 15.3532 23.4183 15.5567C21.7066 16.8944 19.9486 18.1722 18.2029 19.4654C16.5563 20.6853 13.9347 22.0117 13.7859 24.3069C13.7591 24.718 13.8551 25.0888 13.8593 25.4555C13.8892 28.2745 13.0556 30.7825 10.5662 32.304C9.77703 32.7864 8.99818 32.7978 8.70275 33.8194C8.30403 35.1984 8.51269 36.629 8.52199 38.0256C8.54884 42.2184 8.57363 46.4122 8.6573 50.5956C8.67796 51.6224 8.47447 55.0776 9.19341 55.7356C9.37108 55.8988 10.2481 56.1943 10.5672 56.3895C12.9358 57.8356 13.8923 60.9304 13.8603 63.5758C13.8551 64.0137 13.5928 65.3287 14.1919 65.5363C15.1298 65.8596 17.0749 65.5291 18.0469 65.2626C20.4764 64.5963 22.3636 63.3558 24.4884 62.109C25.1268 61.734 26.765 61.0956 27.0315 60.3943C27.1018 60.2094 27.1348 60.0534 26.9138 59.9759C25.009 59.7414 23.2612 59.3148 21.4949 58.5711C18.96 57.5041 16.9055 55.8079 16.9984 52.7958C13.2602 50.0709 11.0114 45.5414 12.1125 40.8796C12.3264 40.6018 13.5504 40.3177 13.5886 39.9892C13.2581 38.2508 12.7912 36.5763 12.9121 34.7852C13.0164 33.242 13.9254 29.7361 15.5988 29.2279C16.1297 29.0668 16.3156 29.2176 16.7268 29.5481C17.8238 30.4292 18.6429 31.863 19.5653 32.9269C21.6519 35.3358 25.1464 37.005 27.7577 38.8581C28.0511 39.0658 29.2875 39.9097 29.3805 40.1411C29.5158 40.4778 29.5489 42.6501 29.0944 42.6501C26.1277 40.829 23.1053 39.0782 20.3504 36.9399C19.7223 36.4524 18.9796 35.9101 18.4528 35.3234C17.8207 34.6189 17.3166 33.6655 16.6607 32.993C15.9882 32.303 15.8271 33.2203 15.6711 33.8297C14.9842 36.5226 16.138 41.015 17.9116 43.1625C18.4972 43.8711 19.4176 44.3979 19.585 45.3854C19.5488 45.5703 18.5561 46.3151 18.3661 46.2965C17.676 46.2262 15.1288 44.1603 14.8013 44.4826C14.8034 46.94 16.3022 49.1929 18.1863 50.6597C19.5942 51.7556 20.277 51.4551 21.6447 52.0666C22.3812 52.3961 22.3522 53.0004 22.0847 53.6935C21.7986 54.4372 21.1323 54.1418 20.5415 54.461C20.4568 54.807 20.871 55.153 21.121 55.3607C22.3998 56.4205 26.2289 57.7158 27.8951 57.9792C28.3548 58.0515 30.524 58.0897 30.6696 58.5153C30.8163 60.6473 28.7979 62.1389 27.2557 63.2566C23.4399 66.0208 19.0798 67.941 14.3613 68.472C11.7872 68.7622 8.51372 69.3727 5.98401 69.1475C5.01303 69.0608 4.08337 68.3594 3.11652 68.6135C3.06384 69.1744 3.80241 71.1195 4.26311 71.3415C4.51308 71.4624 4.96552 71.4831 5.24338 71.7124L8.77713 71.7929C9.08701 72.5212 8.43315 73.0635 7.88775 73.4188C7.42395 73.7204 5.7547 74.334 5.54397 74.5892C5.44687 74.7069 5.44791 75.0416 5.47786 75.1955C5.50575 75.338 6.24328 76.0787 6.38996 76.1076C7.26385 76.1076 8.15839 75.8783 9.0209 75.8359C9.2967 75.8225 10.4598 75.776 10.5817 75.9723C10.5879 76.1809 10.3369 76.4412 10.2036 76.6148C10.0394 76.8286 9.16552 77.686 9.13866 77.7789C8.97545 78.3285 9.14693 79.6145 9.85037 79.7426C11.0992 79.9698 11.7314 78.6652 12.503 77.9669C12.8356 77.6653 13.2188 77.4143 13.6795 77.6033C14.445 77.9163 13.8551 78.3212 13.8551 78.847V80.0297L13.8562 80.0287ZM6.13379 22.6004C5.90344 22.6521 4.61225 23.4268 4.37467 23.6117C2.01849 25.4421 3.25391 29.6865 6.15032 30.2609C9.50949 30.9261 12.0516 27.193 10.1293 24.3224C9.40413 23.2388 7.41879 22.3122 6.13482 22.6015L6.13379 22.6004ZM43.1653 38.0783C43.1002 38.0204 42.8131 37.9636 42.7407 38.0566C41.4888 39.2765 38.0439 41.9219 37.9158 43.7141C37.8538 44.5849 39.3248 45.434 40.0044 45.8007C40.3174 45.9701 41.5446 46.596 41.8121 46.6311C42.3771 46.7045 44.0268 45.3854 44.4327 44.9557C44.9843 44.371 45.1207 44.2275 44.8717 43.4331C44.5825 42.5107 44.0464 41.6399 43.7706 40.6824C43.6683 40.328 43.2655 38.1661 43.1653 38.0783ZM6.40546 58.4864C6.11003 58.5422 5.05435 59.0896 4.75686 59.2704C1.16734 61.4479 4.0152 67.3801 7.96212 66.1922C11.6105 65.0942 11.626 59.6588 7.91048 58.6403C7.49833 58.5277 6.82071 58.4079 6.40649 58.4864H6.40546ZM57.1505 58.5535C56.9284 58.599 55.9843 59.1619 55.756 59.3221C52.2677 61.7609 55.1104 67.8367 59.5325 66.0724C62.3421 64.9517 62.5673 61.0161 60.1636 59.3613C59.4447 58.8665 58.012 58.3769 57.1495 58.5546L57.1505 58.5535ZM51.0013 63.1523C50.9331 63.0975 50.7183 63.05 50.646 63.1264C47.5264 67.4886 42.7314 70.4398 37.452 71.4262C34.0205 72.0677 29.7906 71.9892 26.5419 73.1513C26.0977 73.3104 25.0049 73.6967 25.2187 74.3072C25.2507 74.3981 26.6793 75.1531 26.8952 75.2657C27.485 75.5725 28.1337 76.0673 28.7917 75.9434C30.5384 75.6149 31.3947 74.4724 33.5061 74.9383C35.3572 75.3463 35.822 76.246 37.8879 75.3773C40.5106 74.2741 42.7635 72.1627 45.0515 70.5121C46.7641 69.2767 50.5396 67.2056 51.0664 65.1066C51.1707 64.6934 51.3577 63.4415 51.0003 63.1523H51.0013ZM31.5404 77.8802C31.1654 77.9649 29.8205 78.9348 29.5313 79.2499C27.1286 81.8663 29.9651 86.6283 33.4369 85.522C36.6267 84.5045 37.171 79.9481 34.1187 78.3822C33.503 78.0661 32.2098 77.7304 31.5394 77.8812L31.5404 77.8802Z" fill="white"/>
<path d="M42.5475 12.9351C43.0774 13.056 43.5226 13.4227 43.9254 13.7666C46.1845 15.6962 49.0499 17.851 51.5786 19.4262C53.0877 20.3662 54.1847 20.3424 55.885 19.9861C56.5254 19.8518 57.4892 19.4417 58.079 19.4799C64.6817 19.9065 67.2847 28.4584 61.9195 32.1708C58.5604 34.495 53.7602 33.1408 51.8627 29.6163C50.8855 27.8014 51.5218 26.4018 51.2036 24.5311C50.997 23.3184 50.1376 22.2823 49.2276 21.5066C47.5759 20.0987 45.0947 18.3478 43.2705 17.1248C42.7189 16.755 40.8276 15.9482 41.122 15.0899C41.185 14.906 42.2221 13.2905 42.3822 13.1025C42.4307 13.0467 42.4659 12.9506 42.5485 12.9341L42.5475 12.9351ZM57.0161 22.6036C56.8157 22.6542 55.5875 23.4888 55.3799 23.6706C52.3988 26.2778 55.3964 31.8517 59.5117 30.1008C62.2883 28.9191 62.624 25.0558 60.1232 23.3824C59.4291 22.9176 57.8259 22.3991 57.0161 22.6036Z" fill="white"/>
<path d="M31.9495 0.0334075C37.201 -0.52129 41.2595 5.95225 38.4116 10.4838C35.946 14.407 30.9206 15.2013 27.5036 11.9434C23.0309 7.67832 26.0905 0.653181 31.9495 0.0334075ZM31.5415 3.20665C31.3121 3.25417 30.2472 3.93075 30.0116 4.10945C26.5874 6.69701 29.4136 11.5943 33.5216 10.6615C36.9397 9.88575 36.9294 5.46986 34.19 3.83882C33.5547 3.46076 32.2676 3.05584 31.5415 3.20665Z" fill="white"/>
<path d="M33.9925 17.5637H31.1912V27.7962C32.1714 28.4511 33.1507 29.106 34.131 29.7609C34.1062 27.854 34.0814 25.9472 34.0576 24.0404" fill="white"/>
<path d="M43.3905 29.6597V31.6543L34.3862 31.645L34.13 29.6597H43.3905Z" fill="white"/>
<path d="M31.1912 27.7961L34.3861 31.6449L34.1372 29.7205" fill="white"/>
<path d="M30.8506 42.9083L33.6519 42.9135L33.6705 32.681C32.6923 32.0241 31.7131 31.3671 30.7349 30.7112C30.7555 32.618 30.7772 34.5249 30.7979 36.4327" fill="white"/>
<path d="M21.4752 30.7949L21.4783 28.8013L30.4836 28.8271L30.7357 30.8124L21.4752 30.7949Z" fill="white"/>
<path d="M33.6703 32.6811L30.4836 28.8271L30.7285 30.7515" fill="white"/>
<path d="M100.8 63.4C99.3333 63.4 97.9067 63.2533 96.52 62.96C95.16 62.6667 93.9067 62.28 92.76 61.8C91.64 61.2933 90.7067 60.7333 89.96 60.12L92.16 56.04C92.9333 56.68 93.8133 57.2267 94.8 57.68C95.7867 58.1333 96.8267 58.48 97.92 58.72C99.04 58.96 100.16 59.08 101.28 59.08C102.64 59.08 103.827 58.92 104.84 58.6C105.853 58.28 106.627 57.8267 107.16 57.24C107.72 56.6533 108 55.9467 108 55.12C108 54.3733 107.747 53.7733 107.24 53.32C106.733 52.84 106.053 52.4533 105.2 52.16C104.373 51.84 103.453 51.5467 102.44 51.28C101.453 50.9867 100.453 50.6667 99.44 50.32C98.4267 49.9467 97.5067 49.4933 96.68 48.96C95.8533 48.4 95.1733 47.6933 94.64 46.84C94.1333 45.9867 93.88 44.92 93.88 43.64C93.88 41.8 94.3867 40.2133 95.4 38.88C96.44 37.52 97.8667 36.4667 99.68 35.72C101.52 34.9733 103.653 34.6 106.08 34.6C107.893 34.6 109.613 34.8 111.24 35.2C112.867 35.6 114.267 36.1867 115.44 36.96L113.4 41.08C112.36 40.3867 111.187 39.8533 109.88 39.48C108.573 39.1067 107.213 38.92 105.8 38.92C104.413 38.92 103.213 39.0933 102.2 39.44C101.187 39.7867 100.413 40.2667 99.88 40.88C99.3467 41.4933 99.0667 42.2133 99.04 43.04C99.04 43.8133 99.2933 44.44 99.8 44.92C100.307 45.3733 100.973 45.76 101.8 46.08C102.627 46.4 103.547 46.7067 104.56 47C105.573 47.2667 106.573 47.5733 107.56 47.92C108.573 48.2667 109.507 48.7067 110.36 49.24C111.213 49.7733 111.893 50.4533 112.4 51.28C112.907 52.08 113.16 53.0933 113.16 54.32C113.16 56.16 112.64 57.76 111.6 59.12C110.587 60.48 109.147 61.5333 107.28 62.28C105.44 63.0267 103.28 63.4 100.8 63.4ZM116.486 71.04C115.419 71.04 114.379 70.8667 113.366 70.52C112.326 70.1733 111.499 69.72 110.886 69.16L113.366 65.52C113.819 65.92 114.326 66.24 114.886 66.48C115.472 66.7467 116.139 66.88 116.886 66.88C117.712 66.88 118.446 66.6533 119.086 66.2C119.752 65.7733 120.419 65.0267 121.086 63.96L122.966 61.04L123.446 60.52L135.206 41.64H140.206L125.486 64.88C124.499 66.4267 123.552 67.6533 122.646 68.56C121.739 69.4667 120.792 70.1067 119.806 70.48C118.846 70.8533 117.739 71.04 116.486 71.04ZM121.966 63.76L116.726 41.64H121.726L125.926 60.08L121.966 63.76ZM154.931 41.4C156.771 41.4 158.331 41.7733 159.611 42.52C160.891 43.2667 161.784 44.3733 162.291 45.84C162.824 47.28 162.877 49.0533 162.451 51.16L160.091 63H155.091L157.411 51.28C157.757 49.5467 157.597 48.2 156.931 47.24C156.264 46.2533 155.051 45.76 153.291 45.76C151.451 45.76 149.931 46.2667 148.731 47.28C147.531 48.2933 146.717 49.84 146.291 51.92L144.051 63H139.051L143.291 41.64H148.051L146.851 47.72L146.051 45.8C147.064 44.28 148.331 43.1733 149.851 42.48C151.397 41.76 153.091 41.4 154.931 41.4ZM176.073 63.28C174.339 63.28 172.753 62.9067 171.313 62.16C169.899 61.4133 168.766 60.3467 167.913 58.96C167.086 57.5467 166.673 55.8533 166.673 53.88C166.673 52.0667 166.966 50.4 167.553 48.88C168.166 47.36 169.019 46.04 170.113 44.92C171.206 43.8 172.473 42.9333 173.913 42.32C175.379 41.7067 176.979 41.4 178.713 41.4C180.499 41.4 182.033 41.72 183.313 42.36C184.619 43 185.606 43.9733 186.273 45.28C186.939 46.56 187.246 48.16 187.193 50.08C187.139 52.72 186.659 55.04 185.753 57.04C184.846 59.0133 183.579 60.5467 181.953 61.64C180.326 62.7333 178.366 63.28 176.073 63.28ZM177.353 59C178.793 59 180.059 58.6667 181.153 58C182.246 57.3067 183.113 56.36 183.753 55.16C184.393 53.96 184.713 52.5733 184.713 51C184.713 49.3467 184.219 48.04 183.233 47.08C182.246 46.12 180.859 45.64 179.073 45.64C177.659 45.64 176.393 45.9867 175.273 46.68C174.179 47.3467 173.313 48.28 172.673 49.48C172.033 50.68 171.713 52.0667 171.713 53.64C171.713 55.2933 172.206 56.6 173.193 57.56C174.179 58.52 175.566 59 177.353 59ZM182.593 63L183.553 58.12L184.913 52.44L185.593 46.72L186.593 41.64H191.593L187.352 63H182.593ZM206.814 63.28C205.028 63.28 203.481 62.96 202.174 62.32C200.868 61.6533 199.881 60.68 199.214 59.4C198.548 58.0933 198.241 56.48 198.294 54.56C198.348 51.8933 198.828 49.5733 199.734 47.6C200.641 45.6267 201.908 44.1067 203.534 43.04C205.188 41.9467 207.148 41.4 209.414 41.4C211.174 41.4 212.761 41.7733 214.174 42.52C215.588 43.24 216.708 44.3067 217.534 45.72C218.388 47.1067 218.814 48.7867 218.814 50.76C218.814 52.5733 218.508 54.24 217.894 55.76C217.308 57.28 216.468 58.6 215.374 59.72C214.281 60.84 213.001 61.72 211.534 62.36C210.094 62.9733 208.521 63.28 206.814 63.28ZM192.334 70.76L198.134 41.64H202.894L201.934 46.52L200.614 52.2L199.894 57.92L197.334 70.76H192.334ZM206.414 59C207.854 59 209.121 58.6667 210.214 58C211.308 57.3067 212.174 56.36 212.814 55.16C213.454 53.96 213.774 52.5733 213.774 51C213.774 49.3467 213.281 48.04 212.294 47.08C211.308 46.12 209.921 45.64 208.134 45.64C206.721 45.64 205.454 45.9867 204.334 46.68C203.241 47.3467 202.374 48.28 201.734 49.48C201.094 50.68 200.774 52.0667 200.774 53.64C200.774 55.2933 201.268 56.6 202.254 57.56C203.241 58.52 204.628 59 206.414 59ZM228.596 63.28C226.73 63.28 224.983 63.0533 223.356 62.6C221.73 62.1467 220.476 61.6 219.596 60.96L221.676 57.12C222.556 57.7333 223.65 58.24 224.956 58.64C226.29 59.0133 227.676 59.2 229.116 59.2C230.77 59.2 231.983 58.9733 232.756 58.52C233.556 58.0667 233.956 57.44 233.956 56.64C233.956 56.0533 233.676 55.6133 233.116 55.32C232.556 55.0267 231.836 54.7867 230.956 54.6C230.103 54.4133 229.17 54.2133 228.156 54C227.17 53.7867 226.236 53.4933 225.356 53.12C224.503 52.7467 223.796 52.2 223.236 51.48C222.676 50.76 222.396 49.8 222.396 48.6C222.396 47.08 222.823 45.7867 223.676 44.72C224.53 43.6533 225.716 42.84 227.236 42.28C228.783 41.6933 230.556 41.4 232.556 41.4C233.996 41.4 235.41 41.56 236.796 41.88C238.183 42.2 239.33 42.6533 240.236 43.24L238.396 47.08C237.436 46.4667 236.396 46.04 235.276 45.8C234.183 45.56 233.116 45.44 232.076 45.44C230.45 45.44 229.236 45.6933 228.436 46.2C227.663 46.68 227.276 47.2933 227.276 48.04C227.276 48.6267 227.556 49.08 228.116 49.4C228.676 49.72 229.383 49.9867 230.236 50.2C231.116 50.3867 232.05 50.5867 233.036 50.8C234.05 50.9867 234.983 51.2667 235.836 51.64C236.716 52.0133 237.436 52.56 237.996 53.28C238.556 53.9733 238.836 54.9067 238.836 56.08C238.836 57.6267 238.396 58.9467 237.516 60.04C236.663 61.1067 235.463 61.92 233.916 62.48C232.37 63.0133 230.596 63.28 228.596 63.28ZM252.622 63.28C250.489 63.28 248.636 62.8933 247.062 62.12C245.489 61.32 244.262 60.2267 243.382 58.84C242.529 57.4267 242.102 55.7733 242.102 53.88C242.102 51.4533 242.636 49.3067 243.702 47.44C244.769 45.5733 246.222 44.1067 248.062 43.04C249.929 41.9467 252.049 41.4 254.422 41.4C256.422 41.4 258.156 41.7733 259.622 42.52C261.089 43.2667 262.222 44.3467 263.022 45.76C263.849 47.1467 264.262 48.8133 264.262 50.76C264.262 51.2667 264.236 51.7867 264.182 52.32C264.129 52.8533 264.049 53.3467 263.942 53.8H245.822L246.382 50.48H261.582L259.542 51.6C259.756 50.24 259.662 49.1067 259.262 48.2C258.862 47.2933 258.222 46.6 257.342 46.12C256.462 45.64 255.409 45.4 254.182 45.4C252.716 45.4 251.436 45.7467 250.342 46.44C249.276 47.1067 248.449 48.0667 247.862 49.32C247.276 50.5467 246.982 51.9867 246.982 53.64C246.982 55.3733 247.476 56.7067 248.462 57.64C249.476 58.5733 251.036 59.04 253.142 59.04C254.342 59.04 255.489 58.8533 256.582 58.48C257.676 58.08 258.582 57.5333 259.302 56.84L261.382 60.32C260.262 61.3067 258.929 62.0533 257.382 62.56C255.862 63.04 254.276 63.28 252.622 63.28Z" fill="white"/>
</svg>
