<?xml version="1.0" encoding="UTF-8"?>
<svg id="Camada_2" data-name="Camada 2" xmlns="http://www.w3.org/2000/svg" viewBox="0 0 628 858.99">
  <defs>
    <style>
      .cls-1 {
        fill: #051fdd;
      }
    </style>
  </defs>
  <g id="Layer_2" data-name="Layer 2">
    <g>
      <path class="cls-1" d="M134.16,774.75c2.03.51,6.01,1.34,7.85.32,1.12-.62,11.73-18.47,13.86-21.46,27.45-38.5,65.65-65.11,112.83-72.96,54.99-9.15,123.35-13.56,168.64-49.19,27.09-21.31,48.68-55.04,63.05-86.11,15.88-34.34,26.03-76.22,49.54-106.16,11.02-14.04,25.55-20.27,40.84-28.52,1.25-1.31-.13-4.29-.78-5.78-8.05-18.31-28.74-30.13-48.54-27.17-49.29,7.37-79.18,66.29-117.95,92.7-16.12,10.98-29.59,3.3-44.48-5.01-5.33-2.97-23.8-13.8-27.04-17.62-4.58-5.41-5.05-22.32-4.6-29.29,1.71-26.58,27.6-49.85,47.19-65.33,9.16-7.23,24.02-19.73,36.18-18,5.88.84,7.33,10.43,8.7,15.5,4.06,15.02,5.8,31.17,10.19,46.07.52,1.75,2.06,7.75,3.52,8.26,4.92,1.71,7.5-4.71,10.35-7.75,18.76-20.01,57.83-49.44,86.35-47.08s69.06,39.9,75.37,67.9c.84,3.71,1.96,7.81-1.43,10.61-3.05,2.52-22.56,3.32-29.35,5.97-30.36,11.86-40.45,46.57-51.99,73.62-4.81,11.28-13.56,22.59-11.87,35.53,9.36-.55,16.9-5.86,26.45-6.55,76.22-5.56,99.29,99.86,28.06,131.43-26.82,11.89-32.99-1.18-56.79-2.55-27.56-1.59-55.88,27.11-76.68,42.43-24.94,18.37-70.26,39.92-72.81,74.38-1.67,22.6,3.05,31.59-13.41,50.7-34.5,40.07-92.98,31.78-112.03-18.82-7.32-19.45-1.6-30.46-3.4-48.93-.69-7.06-15.04-21.52-20.62-26.48-2.95-2.63-15.63-13.09-19.29-11.45-1.19.53-5.29,5.5-6.91,6.87-5.24,4.45-11.56,8.26-16.67,12.77-17.19,15.16-20.65,38.41-35.3,54.98-5.28,5.96-6.75,7.6-15.07,5.23-9.61-2.74-12.4-12.18-18.78-18.54-14.58,1.76-23.38,8.79-37.68-.24-11.05-6.97-11.2-12.67-13.95-24-1.75-7.23-4.94-5.1-10.87-7.45-8.82-3.49-21.11-14.4-23.21-23.89-1.51-6.81.51-13.46.36-20.12-.11-4.67-2.78-4.31-5.44-6.85s-4.7-4.8-6.73-7.66c-8.11-11.4-20.45-39.08,2.49-40.77,1.09-6.85-6.16-9.81-9.44-14.43-5.04-7.09-13.19-30.99-12.84-39.55.19-4.6,7.26-24.02,9.36-29.28,2.63-6.6,6.03-13.93,11.31-18.78,5.57-5.11,24.22-16.39,26.81-21.6,2.6-5.24,3.96-18.41,4.27-24.51,2.35-45.6-.37-94.66-.06-140.72.07-9.98,1.47-18.96-.15-29.23-4.88-30.97-41.94-35.95-47.94-68.51-8.05-43.72,23.08-88.14,69.95-81.73,24.76,3.39,30.09,11.25,54.65-3.73,22.79-13.91,51.71-33.25,72.32-50.01,1.5-1.22,8.71-8.23,9.32-8.39,4.88-1.32,13.58,11.18,15.35,15.15.88,1.98,2.4,5.66,1.51,7.63-16.57,12.95-33.59,25.32-50.49,37.84-15.94,11.81-41.32,24.65-42.76,46.87-.26,3.98.67,7.57.71,11.12.29,27.29-7.78,51.57-31.88,66.3-7.64,4.67-15.18,4.78-18.04,14.67-3.86,13.35-1.84,27.2-1.75,40.72.26,40.59.5,81.19,1.31,121.69.2,9.94-1.77,43.39,5.19,49.76,1.72,1.58,10.21,4.44,13.3,6.33,22.93,14,32.19,43.96,31.88,69.57-.05,4.24-2.59,16.97,3.21,18.98,9.08,3.13,27.91-.07,37.32-2.65,23.52-6.45,41.79-18.46,62.36-30.53,6.18-3.63,22.04-9.81,24.62-16.6.68-1.79,1-3.3-1.14-4.05-18.44-2.27-35.36-6.4-52.46-13.6-24.54-10.33-44.43-26.75-43.53-55.91-36.19-26.38-57.96-70.23-47.3-115.36,2.07-2.69,13.92-5.44,14.29-8.62-3.2-16.83-7.72-33.04-6.55-50.38,1.01-14.94,9.81-48.88,26.01-53.8,5.14-1.56,6.94-.1,10.92,3.1,10.62,8.53,18.55,22.41,27.48,32.71,20.2,23.32,54.03,39.48,79.31,57.42,2.84,2.01,14.81,10.18,15.71,12.42,1.31,3.26,1.63,24.29-2.77,24.29-28.72-17.63-57.98-34.58-84.65-55.28-6.08-4.72-13.27-9.97-18.37-15.65-6.12-6.82-11-16.05-17.35-22.56-6.51-6.68-8.07,2.2-9.58,8.1-6.65,26.07,4.52,69.56,21.69,90.35,5.67,6.86,14.58,11.96,16.2,21.52-.35,1.79-9.96,9-11.8,8.82-6.68-.68-31.34-20.68-34.51-17.56.02,23.79,14.53,45.6,32.77,59.8,13.63,10.61,20.24,7.7,33.48,13.62,7.13,3.19,6.85,9.04,4.26,15.75-2.77,7.2-9.22,4.34-14.94,7.43-.82,3.35,3.19,6.7,5.61,8.71,12.38,10.26,49.45,22.8,65.58,25.35,4.45.7,25.45,1.07,26.86,5.19,1.42,20.64-18.12,35.08-33.05,45.9-36.94,26.76-79.15,45.35-124.83,50.49-24.92,2.81-56.61,8.72-81.1,6.54-9.4-.84-18.4-7.63-27.76-5.17-.51,5.43,6.64,24.26,11.1,26.41,2.42,1.17,6.8,1.37,9.49,3.59l34.21.78c3,7.05-3.33,12.3-8.61,15.74-4.49,2.92-20.65,8.86-22.69,11.33-.94,1.14-.93,4.38-.64,5.87.27,1.38,7.41,8.55,8.83,8.83,8.46,0,17.12-2.22,25.47-2.63,2.67-.13,13.93-.58,15.11,1.32.06,2.02-2.37,4.54-3.66,6.22-1.59,2.07-10.05,10.37-10.31,11.27-1.58,5.32.08,17.77,6.89,19.01,12.09,2.2,18.21-10.43,25.68-17.19,3.22-2.92,6.93-5.35,11.39-3.52,7.41,3.03,1.7,6.95,1.7,12.04v11.45ZM59.4,218.79c-2.23.5-14.73,8-17.03,9.79-22.81,17.72-10.85,58.81,17.19,64.37,32.52,6.44,57.13-29.7,38.52-57.49-7.02-10.49-26.24-19.46-38.67-16.66ZM417.9,368.63c-.63-.56-3.41-1.11-4.11-.21-12.12,11.81-45.47,37.42-46.71,54.77-.6,8.43,13.64,16.65,20.22,20.2,3.03,1.64,14.91,7.7,17.5,8.04,5.47.71,21.44-12.06,25.37-16.22,5.34-5.66,6.66-7.05,4.25-14.74-2.8-8.93-7.99-17.36-10.66-26.63-.99-3.43-4.89-24.36-5.86-25.21ZM62.03,566.2c-2.86.54-13.08,5.84-15.96,7.59-34.75,21.08-7.18,78.51,31.03,67.01,35.32-10.63,35.47-63.25-.5-73.11-3.99-1.09-10.55-2.25-14.56-1.49ZM553.29,566.85c-2.15.44-11.29,5.89-13.5,7.44-33.77,23.61-6.25,82.43,36.56,65.35,27.2-10.85,29.38-48.95,6.11-64.97-6.96-4.79-20.83-9.53-29.18-7.81ZM493.76,611.37c-.66-.53-2.74-.99-3.44-.25-30.2,42.23-76.62,70.8-127.73,80.35-33.22,6.21-74.17,5.45-105.62,16.7-4.3,1.54-14.88,5.28-12.81,11.19.31.88,14.14,8.19,16.23,9.28,5.71,2.97,11.99,7.76,18.36,6.56,16.91-3.18,25.2-14.24,45.64-9.73,17.92,3.95,22.42,12.66,42.42,4.25,25.39-10.68,47.2-31.12,69.35-47.1,16.58-11.96,53.13-32.01,58.23-52.33,1.01-4,2.82-16.12-.64-18.92ZM305.36,753.95c-3.63.82-16.65,10.21-19.45,13.26-23.26,25.33,4.2,71.43,37.81,60.72,30.88-9.85,36.15-53.96,6.6-69.12-5.96-3.06-18.48-6.31-24.97-4.85Z"/>
      <path class="cls-1" d="M411.92,125.22c5.13,1.17,9.44,4.72,13.34,8.05,21.87,18.68,49.61,39.54,74.09,54.79,14.61,9.1,25.23,8.87,41.69,5.42,6.2-1.3,15.53-5.27,21.24-4.9,63.92,4.13,89.12,86.92,37.18,122.86-32.52,22.5-78.99,9.39-97.36-24.73-9.46-17.57-3.3-31.12-6.38-49.23-2-11.74-10.32-21.77-19.13-29.28-15.99-13.63-40.01-30.58-57.67-42.42-5.34-3.58-23.65-11.39-20.8-19.7.61-1.78,10.65-17.42,12.2-19.24.47-.54.81-1.47,1.61-1.63ZM551.99,218.82c-1.94.49-13.83,8.57-15.84,10.33-28.86,25.24.16,79.2,40,62.25,26.88-11.44,30.13-48.84,5.92-65.04-6.72-4.5-22.24-9.52-30.08-7.54Z"/>
      <path class="cls-1" d="M309.32.32c50.84-5.37,90.13,57.3,62.56,101.17-23.87,37.98-72.52,45.67-105.6,14.13C222.98,74.33,252.6,6.32,309.32.32ZM305.37,31.04c-2.22.46-12.53,7.01-14.81,8.74-33.15,25.05-5.79,72.46,33.98,63.43,33.09-7.51,32.99-50.26,6.47-66.05-6.15-3.66-18.61-7.58-25.64-6.12Z"/>
      <path class="cls-1" d="M329.1,170.03h-27.12v99.06c9.49,6.34,18.97,12.68,28.46,19.02-.24-18.46-.48-36.92-.71-55.38"/>
    </g>
    <polygon class="cls-1" points="420.08 287.13 420.08 306.44 332.91 306.35 330.43 287.13 420.08 287.13"/>
    <polyline class="cls-1" points="301.98 269.09 332.91 306.35 330.5 287.72"/>
    <path class="cls-1" d="M298.68,415.39l27.12.05.18-99.06c-9.47-6.36-18.95-12.72-28.42-19.07.2,18.46.41,36.92.61,55.39"/>
    <polygon class="cls-1" points="207.92 298.12 207.95 278.82 295.13 279.07 297.57 298.29 207.92 298.12"/>
    <polyline class="cls-1" points="325.98 316.38 295.13 279.07 297.5 297.7"/>
  </g>
</svg>