<svg width="416" height="496" viewBox="0 0 416 496" fill="none" xmlns="http://www.w3.org/2000/svg">
<path d="M88.8604 443.436C90.2051 443.754 92.8416 444.272 94.0605 443.636C94.8025 443.249 101.831 432.111 103.242 430.245C121.426 406.221 146.731 389.617 177.985 384.719C214.413 379.009 259.697 376.258 289.699 354.025C307.645 340.728 321.947 319.681 331.466 300.293C341.986 278.866 348.709 252.733 364.283 234.051C371.583 225.29 381.209 221.403 391.337 216.255C392.165 215.437 391.251 213.578 390.821 212.648C385.488 201.223 371.782 193.847 358.666 195.694C326.014 200.293 306.214 237.059 280.531 253.538C269.852 260.389 260.929 255.597 251.066 250.412C247.535 248.559 235.299 241.801 233.153 239.417C230.119 236.041 229.808 225.49 230.106 221.141C231.239 204.555 248.389 190.035 261.367 180.376C267.434 175.864 277.278 168.064 285.334 169.144C289.229 169.668 290.189 175.652 291.097 178.816C293.786 188.188 294.939 198.265 297.847 207.563C298.192 208.655 299.212 212.399 300.179 212.717C303.438 213.784 305.147 209.778 307.035 207.881C319.463 195.395 345.344 177.031 364.237 178.504C383.13 179.976 409.985 203.401 414.165 220.872C414.721 223.187 415.463 225.746 413.218 227.493C411.197 229.065 398.273 229.564 393.775 231.218C373.663 238.619 366.979 260.277 359.335 277.156C356.148 284.195 350.352 291.252 351.472 299.326C357.672 298.983 362.667 295.67 368.993 295.239C419.484 291.77 434.767 357.55 387.581 377.25C369.815 384.669 365.727 376.513 349.961 375.659C331.704 374.666 312.944 392.575 299.165 402.134C282.644 413.597 252.622 427.044 250.933 448.547C249.827 462.649 252.954 468.258 242.05 480.183C219.196 505.186 180.456 500.013 167.837 468.439C162.987 456.303 166.777 449.433 165.584 437.908C165.127 433.502 155.621 424.479 151.925 421.384C149.971 419.743 141.571 413.216 139.146 414.24C138.358 414.57 135.642 417.672 134.569 418.526C131.098 421.303 126.911 423.681 123.526 426.495C112.139 435.954 109.846 450.462 100.142 460.802C96.644 464.521 95.6703 465.544 90.1587 464.065C83.7927 462.355 81.9445 456.465 77.7181 452.496C68.0597 453.595 62.2303 457.981 52.7574 452.347C45.4374 447.997 45.338 444.441 43.5163 437.371C42.357 432.859 40.2439 434.189 36.3156 432.722C30.4729 430.544 22.3315 423.737 20.9403 417.815C19.9401 413.566 21.2782 409.416 21.1788 405.261C21.106 402.347 19.3372 402.571 17.5752 400.986C15.8131 399.401 14.4617 397.991 13.1169 396.206C7.74453 389.093 -0.429982 371.821 14.7664 370.767C15.4885 366.492 10.6858 364.645 8.51296 361.762C5.17426 357.338 -0.224625 342.425 0.00722878 337.084C0.133092 334.213 4.81655 322.096 6.20767 318.813C7.94989 314.695 10.2022 310.121 13.6999 307.095C17.3897 303.906 29.7442 296.868 31.4599 293.617C33.1822 290.347 34.0832 282.129 34.2885 278.323C35.8453 249.869 34.0434 219.256 34.2488 190.515C34.2951 184.288 35.2226 178.685 34.1494 172.276C30.9167 152.951 6.36666 149.844 2.39201 129.527C-2.94063 102.246 17.6811 74.5286 48.7297 78.5284C65.1318 80.6437 68.6626 85.5483 84.9321 76.2009C100.029 67.5213 119.187 55.4534 132.84 44.9953C133.833 44.2341 138.61 39.8599 139.014 39.7601C142.246 38.9364 148.01 46.7363 149.182 49.2135C149.765 50.449 150.772 52.7453 150.182 53.9745C139.206 62.0551 127.931 69.7739 116.736 77.5862C106.177 84.9555 89.3638 92.9675 88.4099 106.832C88.2377 109.316 88.8537 111.556 88.8802 113.771C89.0724 130.8 83.7265 145.95 67.7616 155.142C62.7006 158.056 57.7058 158.124 55.8112 164.295C53.2542 172.626 54.5923 181.268 54.6519 189.704C54.8242 215.032 54.9832 240.366 55.5197 265.637C55.6522 271.84 54.3472 292.712 58.9578 296.687C60.0972 297.673 65.7213 299.457 67.7683 300.637C82.958 309.372 89.0922 328.067 88.8869 344.047C88.8537 346.693 87.1711 354.636 91.0133 355.891C97.0283 357.844 109.502 355.847 115.736 354.237C131.316 350.212 143.419 342.718 157.045 335.187C161.139 332.922 171.646 329.065 173.355 324.829C173.805 323.712 174.017 322.769 172.599 322.301C160.384 320.885 149.176 318.308 137.848 313.815C121.592 307.369 108.416 297.124 109.012 278.928C85.0381 262.467 70.6168 235.105 77.6784 206.945C79.0496 205.266 86.8996 203.55 87.1447 201.566C85.0248 191.064 82.0306 180.95 82.8057 170.13C83.4747 160.807 89.3042 139.629 100.036 136.559C103.441 135.586 104.633 136.497 107.27 138.494C114.305 143.816 119.558 152.477 125.473 158.904C138.855 173.456 161.265 183.539 178.012 194.734C179.893 195.988 187.822 201.086 188.419 202.483C189.286 204.518 189.498 217.64 186.584 217.64C167.558 206.639 148.175 196.063 130.508 183.146C126.48 180.201 121.717 176.925 118.339 173.381C114.285 169.125 111.052 163.366 106.846 159.304C102.533 155.135 101.5 160.676 100.499 164.358C96.0942 180.625 103.494 207.762 114.868 220.735C118.624 225.016 124.526 228.198 125.599 234.163C125.367 235.28 119.001 239.779 117.783 239.667C113.357 239.243 97.0216 226.763 94.9217 228.71C94.9349 243.554 104.547 257.163 116.63 266.024C125.659 272.645 130.038 270.829 138.808 274.523C143.532 276.513 143.346 280.164 141.63 284.351C139.795 288.843 135.523 287.059 131.734 288.987C131.19 291.077 133.847 293.167 135.45 294.422C143.651 300.824 168.208 308.649 178.893 310.24C181.841 310.677 195.752 310.907 196.686 313.478C197.626 326.357 184.682 335.368 174.792 342.119C150.322 358.817 122.36 370.417 92.0997 373.624C75.5917 375.378 54.5989 379.066 38.3758 377.705C32.1488 377.181 26.1869 372.944 19.9864 374.479C19.6486 377.867 24.385 389.617 27.3395 390.959C28.9426 391.689 31.8441 391.814 33.6261 393.199L56.2882 393.686C58.2755 398.085 54.0822 401.361 50.5846 403.507C47.6102 405.329 36.9052 409.036 35.5538 410.577C34.9311 411.288 34.9377 413.31 35.1298 414.24C35.3087 415.101 40.0385 419.575 40.9792 419.749C46.5834 419.749 52.3202 418.364 57.8515 418.108C59.6202 418.027 67.0793 417.746 67.861 418.932C67.9008 420.193 66.291 421.765 65.4365 422.813C64.3832 424.105 58.7789 429.284 58.6067 429.846C57.5601 433.165 58.6597 440.934 63.1709 441.708C71.1798 443.08 75.234 435.199 80.1824 430.981C82.3155 429.159 84.7731 427.643 87.7276 428.785C92.6363 430.676 88.8537 433.122 88.8537 436.298V443.442L88.8604 443.436ZM39.3363 96.5242C37.8591 96.8362 29.5786 101.516 28.055 102.633C12.9447 113.69 20.8675 139.33 39.4423 142.799C60.9849 146.818 77.2875 124.267 64.9595 106.926C60.3092 100.38 47.5771 94.7833 39.3429 96.5304L39.3363 96.5242ZM276.821 190.022C276.404 189.673 274.562 189.33 274.099 189.891C266.07 197.261 243.977 213.241 243.156 224.067C242.759 229.327 252.192 234.457 256.551 236.672C258.558 237.695 266.428 241.476 268.143 241.689C271.767 242.132 282.346 234.163 284.949 231.567C288.487 228.036 289.361 227.168 287.765 222.37C285.91 216.798 282.472 211.537 280.703 205.753C280.047 203.613 277.464 190.553 276.821 190.022ZM41.0785 313.304C39.184 313.641 32.4138 316.948 30.506 318.04C7.48618 331.193 25.7497 367.029 51.0615 359.853C74.4589 353.22 74.5583 320.386 50.7303 314.233C48.0872 313.553 43.7415 312.829 41.0852 313.304H41.0785ZM366.509 313.709C365.085 313.984 359.03 317.384 357.566 318.352C335.195 333.084 353.426 369.787 381.785 359.129C399.803 352.359 401.247 328.585 385.832 318.589C381.222 315.6 372.034 312.642 366.502 313.715L366.509 313.709ZM327.074 341.489C326.637 341.158 325.259 340.871 324.795 341.333C304.789 367.684 274.039 385.511 240.182 391.47C218.175 395.345 191.048 394.871 170.215 401.891C167.366 402.852 160.358 405.186 161.729 408.873C161.934 409.423 171.096 413.984 172.48 414.664C176.263 416.517 180.423 419.506 184.643 418.757C195.845 416.773 201.336 409.872 214.876 412.686C226.747 415.151 229.728 420.586 242.977 415.338C259.797 408.674 274.244 395.919 288.917 385.948C299.901 378.485 324.113 365.974 327.491 353.295C328.16 350.799 329.359 343.236 327.067 341.489H327.074ZM202.27 430.457C199.866 430.969 191.241 436.828 189.386 438.731C173.977 454.537 192.168 483.303 214.433 476.62C234.889 470.473 238.38 442.949 218.805 433.49C214.857 431.58 206.563 429.552 202.264 430.463L202.27 430.457Z" fill="white"/>
<path d="M272.86 38.1378C276.258 38.8679 279.113 41.0831 281.697 43.1609C296.184 54.817 314.56 67.8334 330.777 77.3492C340.455 83.0275 347.49 82.8839 358.394 80.7312C362.501 79.92 368.682 77.4428 372.464 77.6737C414.808 80.2507 431.501 131.911 397.094 154.337C375.551 168.376 344.768 160.196 332.599 138.906C326.332 127.942 330.413 119.487 328.372 108.187C327.047 100.861 321.536 94.6024 315.7 89.9163C305.107 81.4113 289.196 70.8348 277.497 63.4467C273.959 61.2129 261.83 56.3395 263.718 51.1542C264.122 50.0435 270.773 40.2843 271.8 39.1487C272.111 38.8117 272.336 38.2314 272.866 38.1316L272.86 38.1378ZM365.648 96.543C364.363 96.8488 356.486 101.891 355.155 102.989C336.037 118.738 355.261 152.409 381.652 141.832C399.459 134.694 401.612 111.356 385.574 101.248C381.122 98.4399 370.841 95.3075 365.648 96.543Z" fill="white"/>
<path d="M204.893 -39.7982C238.572 -43.149 264.599 -4.04373 246.336 23.3306C230.523 47.0296 198.296 51.8281 176.382 32.1475C147.698 6.3831 167.32 -36.0543 204.893 -39.7982ZM202.277 -20.6293C200.806 -20.3423 193.976 -16.2552 192.466 -15.1757C170.506 0.455215 188.631 30.0384 214.976 24.4038C236.896 19.7177 236.83 -6.95775 219.262 -16.8105C215.188 -19.0943 206.934 -21.5403 202.277 -20.6293Z" fill="white"/>
<path d="M217.997 66.0986H200.031V127.911C206.318 131.867 212.598 135.823 218.884 139.779C218.725 128.26 218.566 116.741 218.414 105.223" fill="white"/>
<path d="M278.265 139.167V151.217L220.52 151.161L218.878 139.167H278.265Z" fill="white"/>
<path d="M200.031 127.911L220.521 151.16L218.924 139.536" fill="white"/>
<path d="M197.845 219.2L215.81 219.231L215.93 157.419C209.656 153.451 203.376 149.482 197.103 145.52C197.236 157.039 197.375 168.557 197.507 180.082" fill="white"/>
<path d="M137.722 146.025L137.742 133.982L195.493 134.138L197.11 146.131L137.722 146.025Z" fill="white"/>
<path d="M215.93 157.419L195.493 134.138L197.063 145.763" fill="white"/>
</svg>
