<svg width="31" height="31" viewBox="0 0 31 31" fill="none" xmlns="http://www.w3.org/2000/svg">
<path d="M5.70285 0C2.55325 0 0 2.55325 0 5.70285V20.618C0 23.7675 2.55325 26.3208 5.70285 26.3208H20.618C23.7675 26.3208 26.3208 23.7675 26.3208 20.618V5.70285C26.3208 2.55325 23.7675 0 20.618 0H5.70285ZM17.1086 7.89625C17.1086 10.0767 15.3408 11.8444 13.1604 11.8444C10.9799 11.8444 9.2123 10.0767 9.2123 7.89625C9.2123 5.71576 10.9799 3.94813 13.1604 3.94813C15.3408 3.94813 17.1086 5.71576 17.1086 7.89625ZM18.4246 13.5991C19.8782 13.5991 21.0567 14.7776 21.0567 16.2312V17.1086C21.0567 17.9784 20.9051 18.6176 20.6112 19.1451C20.316 19.6752 19.8561 20.1309 19.1751 20.5992C17.8898 21.4829 15.9157 21.934 13.1604 21.934C10.8437 21.934 8.86969 21.4829 7.4748 20.5992C6.74075 20.1342 6.19486 19.6806 5.829 19.1435C5.46986 18.6162 5.26417 17.9787 5.26417 17.1086V16.2312C5.26417 14.7776 6.44259 13.5991 7.89625 13.5991H18.4246Z" fill="black"/>
<path d="M5.26416 28.3358C6.29 29.9379 8.08568 31.0001 10.1294 31.0001H21.6749C26.8251 31.0001 31.0001 26.8249 31.0001 21.6749V10.1294C31.0001 8.08567 29.9381 6.29 28.3358 5.26416V21.6749C28.3358 25.3535 25.3537 28.3358 21.6749 28.3358H5.26416Z" fill="black"/>
</svg>
