<svg width="31" height="21" viewBox="0 0 31 21" fill="none" xmlns="http://www.w3.org/2000/svg">
<path fill-rule="evenodd" clip-rule="evenodd" d="M15.4931 0C11.1492 0 7.34604 2.58411 4.73273 4.97517C3.40509 6.1899 2.3343 7.40102 1.59548 8.3076C1.22536 8.76167 0.936685 9.14169 0.738891 9.41064C0.639948 9.5452 0.563614 9.65207 0.511081 9.72673C0.484807 9.76407 0.464467 9.79331 0.450218 9.814L0.433417 9.83842L0.428469 9.84573L0 10.5205L0.426872 11.1519L0.428469 11.1543L0.433417 11.1616L0.450218 11.186C0.464467 11.2067 0.484807 11.2359 0.511081 11.2733C0.563614 11.3479 0.639948 11.4548 0.738891 11.5894C0.936685 11.8583 1.22536 12.2383 1.59548 12.6924C2.3343 13.599 3.40509 14.8101 4.73273 16.0249C7.34604 18.4159 11.1492 21 15.4931 21C19.837 21 23.6401 18.4159 26.2534 16.0249C27.5811 14.8101 28.6519 13.599 29.3907 12.6924C29.7608 12.2383 30.0494 11.8583 30.2473 11.5894C30.3461 11.4548 30.4225 11.3479 30.475 11.2733C30.5013 11.2359 30.5216 11.2067 30.5359 11.186L30.5526 11.1616L30.5577 11.1543L30.5599 11.1512L31 10.5L30.5592 9.84807L30.5577 9.84573L30.5526 9.83842L30.5359 9.814C30.5216 9.79331 30.5013 9.76407 30.475 9.72673C30.4225 9.65207 30.3461 9.5452 30.2473 9.41064C30.0494 9.14169 29.7608 8.76167 29.3907 8.3076C28.6519 7.40102 27.5811 6.1899 26.2534 4.97517C23.6401 2.58411 19.837 0 15.4931 0ZM3.42091 11.2243C3.1964 10.9488 3.00528 10.7039 2.85022 10.5C3.00528 10.2961 3.1964 10.0512 3.42091 9.77573C4.10833 8.93231 5.10129 7.81013 6.32388 6.6915C8.81097 4.41589 12.054 2.33333 15.4931 2.33333C18.9321 2.33333 22.1752 4.41589 24.6622 6.6915C25.8848 7.81013 26.8778 8.93231 27.5652 9.77573C27.7898 10.0512 27.9808 10.2961 28.136 10.5C27.9808 10.7039 27.7898 10.9488 27.5652 11.2243C26.8778 12.0677 25.8848 13.1899 24.6622 14.3085C22.1752 16.5841 18.9321 18.6667 15.4931 18.6667C12.054 18.6667 8.81097 16.5841 6.32388 14.3085C5.10129 13.1899 4.10833 12.0677 3.42091 11.2243ZM19.0161 10.5C19.0161 12.4329 17.4388 14 15.493 14C13.5473 14 11.97 12.4329 11.97 10.5C11.97 8.56707 13.5473 7 15.493 7C17.4388 7 19.0161 8.56707 19.0161 10.5ZM21.3648 10.5C21.3648 13.7217 18.7359 16.3333 15.493 16.3333C12.2502 16.3333 9.62126 13.7217 9.62126 10.5C9.62126 7.27834 12.2502 4.66667 15.493 4.66667C18.7359 4.66667 21.3648 7.27834 21.3648 10.5Z" fill="#2A69DB"/>
</svg>
