<svg width="65" height="40" viewBox="0 0 65 40" fill="none" xmlns="http://www.w3.org/2000/svg">
<path d="M18.4627 27.7881C18.453 27.6884 18.4217 27.5966 18.4217 27.4969V26.6426C18.4217 26.236 18.4881 25.8353 18.6211 25.4541C18.6211 25.4541 20.75 22.6039 21.7568 19.2552C20.6542 16.9289 19.6533 14.0338 19.6533 11.1641C19.6533 10.4975 19.7022 9.8524 19.7706 9.21696C18.3338 7.71175 16.3926 6.85938 14.2481 6.85938C9.82032 6.85938 6.22739 10.4719 6.22739 16.0863C6.22739 20.5785 9.883 25.4539 9.883 25.4539C10.012 25.8352 10.0785 26.2359 10.0785 26.6425V27.4968C10.0785 28.5622 9.45687 29.5318 8.48726 29.9756L2.68325 32.3468C1.33431 32.9685 0.374463 34.2078 0.106726 35.6661L0.00701277 36.9426C-0.0437822 37.6073 0.182918 38.2621 0.636444 38.749C1.08797 39.2396 1.72341 39.5153 2.39 39.5153H11.8769L12.2659 34.5167L12.2913 34.3818C12.7663 31.7604 14.4983 29.5318 16.9183 28.4176L18.4627 27.7881Z" fill="#4172D1"/>
<path d="M63.9504 35.6661C63.6845 34.2078 62.7247 32.9683 61.3759 32.3468L55.568 29.9756C54.5984 29.5318 53.9806 28.5622 53.9806 27.4968V26.6425C53.9806 26.2359 54.0451 25.8352 54.178 25.4539C54.178 25.4539 57.8316 20.5785 57.8316 16.0863C57.8316 10.4719 54.2406 6.85938 49.805 6.85938C47.6645 6.85938 45.7233 7.71175 44.2825 9.22084C44.3529 9.85427 44.4017 10.4973 44.4017 11.1639C44.4017 14.0317 43.4028 16.9269 42.3022 19.2531C43.307 22.6018 45.4398 25.4539 45.4398 25.4539C45.5688 25.8352 45.6372 26.2359 45.6372 26.6425V27.4968C45.6372 27.5965 45.6039 27.6883 45.5942 27.788L47.0329 28.3745C49.5547 29.5279 51.2867 31.7564 51.7676 34.3778L51.7911 34.5147L52.1782 39.5153H61.669C62.3356 39.5153 62.9709 39.2396 63.4205 38.749C63.8741 38.2621 64.1009 37.6073 64.05 36.9426L63.9504 35.6661Z" fill="#4172D1"/>
<path d="M46.0243 30.8437L38.9986 27.972C37.8257 27.4324 37.077 26.2595 37.077 24.9732V23.9372C37.077 23.4485 37.1552 22.9617 37.3175 22.4984C37.3175 22.4984 41.7355 16.6026 41.7355 11.1641C41.7355 4.36899 37.3899 0 32.0277 0C26.6674 0 22.3198 4.36911 22.3198 11.1641C22.3198 16.6026 26.7418 22.4984 26.7418 22.4984C26.9001 22.9617 26.9822 23.4485 26.9822 23.9372V24.9732C26.9822 26.2595 26.2277 27.4324 25.0566 27.972L18.0309 30.8437C16.3986 31.5923 15.2355 33.0936 14.9149 34.8608L14.5532 39.5153H32.0277H49.5021L49.1444 34.8608C48.8198 33.0938 47.6566 31.5924 46.0243 30.8437Z" fill="#4172D1"/>
</svg>
