<svg width="38" height="23" viewBox="0 0 38 23" fill="none" xmlns="http://www.w3.org/2000/svg">
<path d="M10.7463 16.1743C10.7406 16.1163 10.7224 16.0628 10.7224 16.0048V15.5076C10.7224 15.2709 10.761 15.0376 10.8385 14.8158C10.8385 14.8158 12.0776 13.1568 12.6636 11.2077C12.0218 9.85367 11.4392 8.16859 11.4392 6.49823C11.4392 6.11024 11.4677 5.73477 11.5075 5.36491C10.6713 4.4888 9.54137 3.99268 8.29314 3.99268C5.71594 3.99268 3.62467 6.09538 3.62467 9.36322C3.62467 11.9779 5.75242 14.8157 5.75242 14.8157C5.8275 15.0376 5.86624 15.2708 5.86624 15.5075V16.0047C5.86624 16.6249 5.50439 17.1892 4.94003 17.4475L1.56179 18.8277C0.776639 19.1895 0.217957 19.9109 0.0621201 20.7597L0.0040818 21.5027C-0.0254835 21.8896 0.106468 22.2707 0.370444 22.5541C0.633255 22.8397 1.00311 23.0001 1.3911 23.0001H6.91297L7.13937 20.0907L7.15415 20.0122C7.43065 18.4864 8.43879 17.1892 9.84736 16.5407L10.7463 16.1743Z" fill="black"/>
<path d="M37.2224 20.7597C37.0677 19.9109 36.509 19.1895 35.7239 18.8277L32.3434 17.4475C31.7791 17.1892 31.4195 16.6249 31.4195 16.0047V15.5075C31.4195 15.2708 31.457 15.0376 31.5344 14.8157C31.5344 14.8157 33.661 11.9779 33.661 9.36322C33.661 6.09538 31.5708 3.99268 28.9891 3.99268C27.7432 3.99268 26.6133 4.4888 25.7747 5.36717C25.8157 5.73586 25.8441 6.11016 25.8441 6.49815C25.8441 8.16735 25.2627 9.8525 24.6221 11.2065C25.2069 13.1556 26.4483 14.8157 26.4483 14.8157C26.5234 15.0376 26.5632 15.2708 26.5632 15.5075V16.0047C26.5632 16.0627 26.5438 16.1162 26.5381 16.1742L27.3756 16.5156C28.8434 17.187 29.8515 18.484 30.1314 20.0099L30.1451 20.0895L30.3704 23.0001H35.8945C36.2825 23.0001 36.6523 22.8397 36.914 22.5541C37.178 22.2707 37.31 21.8896 37.2804 21.5027L37.2224 20.7597Z" fill="black"/>
<path d="M26.7885 17.9526L22.6992 16.2812C22.0165 15.9671 21.5807 15.2844 21.5807 14.5357V13.9327C21.5807 13.6482 21.6262 13.3649 21.7207 13.0952C21.7207 13.0952 24.2922 9.66356 24.2922 6.4981C24.2922 2.54298 21.7629 0 18.6417 0C15.5218 0 12.9913 2.54305 12.9913 6.4981C12.9913 9.66356 15.5651 13.0952 15.5651 13.0952C15.6573 13.3649 15.705 13.6482 15.705 13.9327V14.5357C15.705 15.2844 15.2658 15.9671 14.5842 16.2812L10.4949 17.9526C9.54481 18.3884 8.8678 19.2622 8.68123 20.2908L8.4707 23H18.6417H28.8128L28.6046 20.2908C28.4156 19.2623 27.7386 18.3885 26.7885 17.9526Z" fill="black"/>
</svg>
